<svg width="231" height="65" viewBox="0 0 231 65" fill="none" xmlns="http://www.w3.org/2000/svg">
  <path d="M80.9052 13.0419V14.5021H77.143V16.8184H80.0253V18.2548H77.143V22.0694H75.3308V13.0419H80.9052Z" fill="#18407B"/>
  <path d="M83.9967 14.5021V16.7661H87.036V18.2025H83.9967V20.5949H87.426V22.0694H82.1893V13.0276H87.426V14.5021H83.9967Z" fill="#18407B"/>
  <path d="M94.7271 13.5984C95.4453 13.9694 96.0017 14.4973 96.3965 15.1822C96.7865 15.8671 96.9863 16.6614 96.9863 17.5699C96.9863 18.4784 96.7913 19.2679 96.3965 19.9433C96.0017 20.6187 95.45 21.1467 94.7271 21.5129C94.0041 21.8791 93.1717 22.0694 92.2252 22.0694H89.0718V13.0419H92.2252C93.1717 13.0419 94.0041 13.2274 94.7271 13.5984ZM94.3561 19.7531C94.8745 19.2346 95.1313 18.5069 95.1313 17.5651C95.1313 16.6234 94.8745 15.8909 94.3561 15.3582C93.8376 14.8303 93.1051 14.5639 92.1586 14.5639H90.8792V20.5283H92.1586C93.1051 20.5331 93.8376 20.2715 94.3561 19.7531Z" fill="#18407B"/>
  <path d="M100.149 14.5021V16.7661H103.189V18.2025H100.149V20.5949H103.579V22.0694H98.3419V13.0276H103.579V14.5021H100.149Z" fill="#18407B"/>
  <path d="M109.876 22.0694L107.883 18.5497H107.032V22.0694H105.219V13.0419H108.606C109.305 13.0419 109.9 13.1655 110.39 13.4129C110.88 13.6602 111.251 13.9884 111.493 14.4069C111.736 14.8255 111.859 15.2916 111.859 15.8101C111.859 16.4046 111.688 16.9421 111.341 17.4225C110.994 17.9028 110.485 18.231 109.8 18.4118L111.959 22.0741H109.876V22.0694ZM107.032 17.1941H108.544C109.034 17.1941 109.4 17.0752 109.643 16.8374C109.885 16.5996 110.004 16.2714 110.004 15.8481C110.004 15.4343 109.885 15.1109 109.643 14.8826C109.4 14.6543 109.034 14.5401 108.544 14.5401H107.032V17.1941Z" fill="#18407B"/>
  <path d="M119.046 20.3523H115.45L114.856 22.0741H112.953L116.202 13.0323H118.309L121.558 22.0741H119.646L119.046 20.3523ZM118.556 18.9017L117.248 15.1251L115.94 18.9017H118.556Z" fill="#18407B"/>
  <path d="M124.583 20.633H127.555V22.0694H122.77V13.0419H124.583V20.633Z" fill="#18407B"/>
  <path d="M138.024 17.1941C137.796 17.6175 137.439 17.9552 136.949 18.2168C136.459 18.4784 135.845 18.6068 135.103 18.6068H133.591V22.0741H131.779V13.0419H135.103C135.803 13.0419 136.397 13.1608 136.887 13.4034C137.377 13.6459 137.748 13.9789 137.995 14.3974C138.243 14.8207 138.362 15.2964 138.362 15.8338C138.366 16.319 138.252 16.7708 138.024 17.1941ZM136.145 16.7994C136.388 16.5711 136.507 16.2476 136.507 15.8338C136.507 14.9539 136.017 14.5163 135.032 14.5163H133.596V17.1418H135.032C135.532 17.1418 135.903 17.0277 136.145 16.7994Z" fill="#18407B"/>
  <path d="M141.434 13.0419V18.6306C141.434 19.2441 141.591 19.7102 141.915 20.0337C142.233 20.3571 142.68 20.5188 143.261 20.5188C143.846 20.5188 144.298 20.3571 144.621 20.0337C144.94 19.7102 145.101 19.2441 145.101 18.6306V13.0419H146.923V18.6163C146.923 19.3821 146.757 20.0337 146.424 20.5616C146.091 21.0896 145.648 21.4891 145.092 21.7602C144.535 22.0313 143.917 22.1598 143.237 22.1598C142.566 22.1598 141.953 22.0266 141.406 21.7602C140.859 21.4939 140.426 21.0943 140.107 20.5616C139.789 20.0289 139.627 19.3821 139.627 18.6163V13.0419H141.434Z" fill="#18407B"/>
  <path d="M155.037 18.2025C155.365 18.6163 155.527 19.0919 155.527 19.6246C155.527 20.1098 155.408 20.5331 155.17 20.8993C154.933 21.2656 154.59 21.5509 154.143 21.7602C153.696 21.9647 153.163 22.0694 152.554 22.0694H148.659V13.0419H152.383C152.997 13.0419 153.525 13.1418 153.967 13.3415C154.409 13.5413 154.747 13.8172 154.975 14.1691C155.204 14.5211 155.318 14.9254 155.318 15.3725C155.318 15.9004 155.18 16.338 154.899 16.69C154.619 17.0419 154.248 17.294 153.782 17.4415C154.295 17.5366 154.714 17.7887 155.037 18.2025ZM150.476 16.7661H152.131C152.564 16.7661 152.892 16.6709 153.125 16.4759C153.358 16.2809 153.472 16.0051 153.472 15.6436C153.472 15.2821 153.354 15.0015 153.125 14.8017C152.897 14.6019 152.559 14.5068 152.131 14.5068H150.476V16.7661ZM153.325 20.2858C153.572 20.0812 153.696 19.7863 153.696 19.4058C153.696 19.0158 153.568 18.7114 153.306 18.4926C153.049 18.2738 152.697 18.1644 152.26 18.1644H150.476V20.5949H152.298C152.735 20.5949 153.078 20.4903 153.325 20.2858Z" fill="#18407B"/>
  <path d="M158.79 20.633H161.763V22.0694H156.978V13.0419H158.79V20.633Z" fill="#18407B"/>
  <path d="M164.726 13.0419V22.0694H162.914V13.0419H164.726Z" fill="#18407B"/>
  <path d="M166.671 15.1585C167.071 14.4545 167.618 13.9075 168.312 13.5175C169.007 13.1227 169.782 12.9277 170.648 12.9277C171.656 12.9277 172.541 13.1846 173.297 13.703C174.053 14.2215 174.586 14.9349 174.885 15.8481H172.802C172.593 15.4153 172.303 15.0919 171.927 14.8778C171.551 14.6638 171.118 14.5544 170.629 14.5544C170.101 14.5544 169.635 14.6781 169.225 14.9254C168.816 15.1727 168.498 15.5199 168.269 15.967C168.041 16.4141 167.927 16.9421 167.927 17.5461C167.927 18.1407 168.041 18.6639 168.269 19.1157C168.498 19.5676 168.816 19.9195 169.225 20.1621C169.635 20.4094 170.101 20.5283 170.629 20.5283C171.118 20.5283 171.551 20.419 171.927 20.2002C172.303 19.9814 172.593 19.6532 172.802 19.2251H174.885C174.586 20.1478 174.053 20.866 173.302 21.3797C172.545 21.8934 171.661 22.1503 170.643 22.1503C169.782 22.1503 169.002 21.9552 168.307 21.5605C167.613 21.1705 167.066 20.6235 166.667 19.9243C166.267 19.2251 166.067 18.4308 166.067 17.5461C166.072 16.6567 166.272 15.8624 166.671 15.1585Z" fill="#18407B"/>
  <path d="M180.94 21.8363C180.436 21.6223 180.037 21.3084 179.746 20.9041C179.452 20.4998 179.304 20.0194 179.295 19.4677H181.235C181.259 19.8387 181.392 20.1336 181.63 20.3476C181.868 20.5616 182.191 20.671 182.605 20.671C183.028 20.671 183.361 20.5711 183.599 20.3666C183.842 20.1621 183.961 19.9005 183.961 19.5723C183.961 19.306 183.88 19.0872 183.713 18.9112C183.547 18.7352 183.347 18.602 183.1 18.5021C182.852 18.4023 182.515 18.2929 182.087 18.1739C181.501 18.0027 181.026 17.8315 180.66 17.665C180.293 17.4985 179.979 17.2417 179.713 16.904C179.447 16.5663 179.314 16.1097 179.314 15.5389C179.314 15.0062 179.447 14.5401 179.713 14.1406C179.979 13.7458 180.355 13.4414 180.84 13.2274C181.326 13.0181 181.877 12.9087 182.496 12.9087C183.428 12.9087 184.184 13.137 184.764 13.5888C185.345 14.0407 185.668 14.6733 185.73 15.4819H183.737C183.718 15.1727 183.59 14.9159 183.342 14.7113C183.095 14.5068 182.771 14.4069 182.367 14.4069C182.015 14.4069 181.73 14.4973 181.521 14.678C181.311 14.8588 181.202 15.1204 181.202 15.4676C181.202 15.7102 181.283 15.9099 181.44 16.0669C181.601 16.2286 181.796 16.357 182.034 16.4569C182.272 16.5568 182.605 16.6709 183.038 16.7994C183.623 16.9706 184.103 17.1466 184.474 17.3178C184.845 17.489 185.164 17.7506 185.43 18.0931C185.697 18.4355 185.83 18.8922 185.83 19.4486C185.83 19.9338 185.706 20.3809 185.454 20.7947C185.202 21.2085 184.836 21.5367 184.355 21.784C183.875 22.0313 183.299 22.155 182.634 22.155C182.01 22.1598 181.444 22.0551 180.94 21.8363Z" fill="#18407B"/>
  <path d="M189.212 14.5021V16.7661H192.251V18.2025H189.212V20.5949H192.641V22.0694H187.399V13.0276H192.636V14.5021H189.212Z" fill="#18407B"/>
  <path d="M198.938 22.0694L196.945 18.5497H196.094V22.0694H194.282V13.0419H197.668C198.367 13.0419 198.962 13.1655 199.452 13.4129C199.942 13.6602 200.313 13.9884 200.56 14.4069C200.807 14.8255 200.931 15.2916 200.931 15.8101C200.931 16.4046 200.76 16.9421 200.413 17.4225C200.065 17.9028 199.557 18.231 198.872 18.4118L201.031 22.0741H198.938V22.0694ZM196.089 17.1941H197.602C198.092 17.1941 198.458 17.0752 198.7 16.8374C198.943 16.5996 199.062 16.2714 199.062 15.8481C199.062 15.4343 198.943 15.1109 198.7 14.8826C198.458 14.6543 198.092 14.5401 197.602 14.5401H196.089V17.1941Z" fill="#18407B"/>
  <path d="M210.682 13.0419L207.371 22.0694H205.174L201.863 13.0419H203.804L206.287 20.2192L208.755 13.0419H210.682Z" fill="#18407B"/>
  <path d="M213.578 13.0419V22.0694H211.766V13.0419H213.578Z" fill="#18407B"/>
  <path d="M215.523 15.1585C215.923 14.4545 216.47 13.9075 217.164 13.5175C217.859 13.1227 218.634 12.9277 219.5 12.9277C220.508 12.9277 221.393 13.1846 222.149 13.703C222.905 14.2215 223.438 14.9349 223.738 15.8481H221.654C221.445 15.4153 221.155 15.0919 220.779 14.8778C220.403 14.6638 219.971 14.5544 219.481 14.5544C218.953 14.5544 218.487 14.6781 218.078 14.9254C217.669 15.1727 217.35 15.5199 217.122 15.967C216.893 16.4141 216.779 16.9421 216.779 17.5461C216.779 18.1407 216.893 18.6639 217.122 19.1157C217.35 19.5676 217.669 19.9195 218.078 20.1621C218.487 20.4094 218.953 20.5283 219.481 20.5283C219.971 20.5283 220.403 20.419 220.779 20.2002C221.155 19.9814 221.445 19.6532 221.654 19.2251H223.738C223.438 20.1478 222.905 20.866 222.154 21.3797C221.398 21.8934 220.513 22.1503 219.495 22.1503C218.634 22.1503 217.854 21.9552 217.16 21.5605C216.465 21.1705 215.918 20.6235 215.519 19.9243C215.119 19.2251 214.919 18.4308 214.919 17.5461C214.924 16.6567 215.124 15.8624 215.523 15.1585Z" fill="#18407B"/>
  <path d="M227.105 14.5021V16.7661H230.145V18.2025H227.105V20.5949H230.535V22.0694H225.298V13.0276H230.535V14.5021H227.105Z" fill="#18407B"/>
  <path d="M79.4688 29.3323V43.373C79.4688 45.3231 78.9028 46.8356 77.7803 47.9153C76.653 48.9949 75.1453 49.5324 73.2522 49.5324C71.3402 49.5324 69.7991 48.9759 68.6243 47.8677C67.4495 46.7595 66.8597 45.2137 66.8597 43.2255H70.8693C70.8883 44.0864 71.0929 44.7523 71.4876 45.2327C71.8777 45.7083 72.4484 45.9509 73.1904 45.9509C73.9181 45.9509 74.4699 45.7226 74.8504 45.2612C75.2309 44.8046 75.4259 44.172 75.4259 43.3682V29.3323H79.4688Z" fill="#18407B"/>
  <path d="M88.092 29.3323V41.713C88.092 43.0686 88.4439 44.1054 89.1526 44.8236C89.8613 45.5418 90.8507 45.8986 92.1349 45.8986C93.4333 45.8986 94.4369 45.5418 95.1456 44.8236C95.8543 44.1054 96.2063 43.0733 96.2063 41.713V29.3323H100.249V41.6845C100.249 43.3872 99.8829 44.8236 99.1457 45.9985C98.4085 47.1733 97.4287 48.0579 96.192 48.6477C94.9601 49.2423 93.5903 49.5372 92.0778 49.5372C90.589 49.5372 89.2335 49.2423 88.0206 48.6477C86.8078 48.0579 85.847 47.1733 85.1383 45.9985C84.4296 44.8236 84.0776 43.3872 84.0776 41.6845V29.3323H88.092Z" fill="#18407B"/>
  <path d="M107.251 48.819C106.133 48.3434 105.248 47.6537 104.601 46.7547C103.95 45.8558 103.617 44.7951 103.598 43.5728H107.897C107.954 44.3956 108.245 45.0425 108.773 45.5229C109.296 45.9985 110.019 46.2411 110.937 46.2411C111.874 46.2411 112.606 46.0175 113.144 45.5657C113.676 45.1186 113.947 44.5288 113.947 43.8011C113.947 43.2065 113.767 42.7214 113.405 42.3409C113.044 41.9604 112.587 41.656 112.045 41.4372C111.503 41.2184 110.751 40.9758 109.795 40.7047C108.497 40.3242 107.441 39.9437 106.627 39.5727C105.814 39.2017 105.12 38.6357 104.535 37.8842C103.95 37.1279 103.659 36.1196 103.659 34.8592C103.659 33.6748 103.954 32.6427 104.549 31.7628C105.139 30.8829 105.971 30.2122 107.041 29.7414C108.111 29.2752 109.334 29.0374 110.708 29.0374C112.773 29.0374 114.447 29.5368 115.736 30.5404C117.025 31.544 117.738 32.9424 117.871 34.7403H113.458C113.419 34.0506 113.129 33.4846 112.582 33.0375C112.035 32.5904 111.317 32.3621 110.418 32.3621C109.633 32.3621 109.01 32.5619 108.539 32.9614C108.073 33.3609 107.836 33.9459 107.836 34.7117C107.836 35.2444 108.012 35.6915 108.364 36.0435C108.715 36.3955 109.158 36.6856 109.681 36.9044C110.204 37.1232 110.946 37.3753 111.902 37.6654C113.201 38.0459 114.261 38.4312 115.084 38.8117C115.907 39.1922 116.611 39.7677 117.206 40.5335C117.795 41.2992 118.095 42.3028 118.095 43.5442C118.095 44.6144 117.819 45.6085 117.263 46.5264C116.706 47.4444 115.898 48.1721 114.827 48.7191C113.757 49.2613 112.487 49.5372 111.018 49.5372C109.624 49.5324 108.368 49.2946 107.251 48.819Z" fill="#18407B"/>
  <path d="M135.175 29.3323V32.5713H129.843V49.3374H125.833V32.5666H120.502V29.3275H135.175V29.3323Z" fill="#18407B"/>
  <path d="M142.11 29.3323V49.3326H138.095V29.3323H142.11Z" fill="#18407B"/>
  <path d="M146.424 34.0173C147.313 32.4619 148.526 31.2491 150.062 30.3787C151.598 29.5083 153.325 29.0754 155.237 29.0754C157.473 29.0754 159.432 29.6462 161.111 30.7925C162.79 31.9387 163.965 33.5274 164.636 35.5488H160.022C159.565 34.5928 158.918 33.8793 158.086 33.3989C157.254 32.9186 156.293 32.6807 155.204 32.6807C154.038 32.6807 153.002 32.9518 152.093 33.4988C151.185 34.041 150.481 34.8116 149.972 35.8056C149.463 36.7997 149.211 37.965 149.211 39.3015C149.211 40.619 149.463 41.7796 149.972 42.7832C150.476 43.7868 151.185 44.562 152.093 45.1043C153.002 45.6465 154.038 45.9224 155.204 45.9224C156.293 45.9224 157.254 45.6798 158.086 45.1899C158.918 44.7 159.561 43.9818 160.022 43.0258H164.636C163.965 45.071 162.795 46.6596 161.125 47.7964C159.451 48.9331 157.492 49.4991 155.237 49.4991C153.325 49.4991 151.603 49.0663 150.062 48.1959C148.526 47.3255 147.313 46.1174 146.424 44.5716C145.534 43.0258 145.092 41.2659 145.092 39.2968C145.092 37.3372 145.534 35.5726 146.424 34.0173Z" fill="#18407B"/>
  <path d="M172.084 32.5666V37.5798H178.819V40.7618H172.084V46.0651H179.68V49.3327H168.074V29.299H179.68V32.5666H172.084Z" fill="#18407B"/>
  <path d="M29.6367 63.6968C29.4845 63.6968 29.3323 63.6682 29.1848 63.6112C28.9232 63.5065 22.6829 60.9999 16.1097 53.1187C5.24148 40.0911 2.08328 22.6639 1.3508 10.3355C1.31751 9.75525 1.69326 9.2273 2.25451 9.07034L29.3656 1.54582C29.5844 1.48399 29.8127 1.48399 30.0267 1.54582L56.9999 9.07034C57.5135 9.21303 57.8798 9.66964 57.9036 10.2023C57.9226 10.5876 58.3078 19.8196 55.1259 31.0541C50.8927 46.0032 42.2743 57.2377 30.2075 63.5541C30.0315 63.6492 29.8317 63.6968 29.6367 63.6968ZM3.88593 11.1869C4.69926 23.0159 7.82892 39.2445 17.9028 51.4064C23.0444 57.6134 28.0338 60.3341 29.5939 61.0856C54.3839 47.6917 55.4683 16.8327 55.454 11.2059L29.6938 4.02387L3.88593 11.1869Z" fill="#961638"/>
  <path d="M4.87048 11.5436L29.5606 4.22363L54.7977 11.6483C54.7977 11.6483 55.454 45.7274 29.6367 59.2353C29.6367 59.2353 7.13925 49.7702 4.87048 11.5436Z" fill="#18407B"/>
  <path d="M28.4286 61.3281L29.1468 14.678H30.1218L30.6831 61.3281H28.4286Z" fill="#FDFFFF"/>
  <path d="M31.0398 61.6801H28.0671L28.7949 14.326H30.4691L31.0398 61.6801ZM28.7853 60.9761H30.3264L29.7747 15.0347H29.494L28.7853 60.9761Z" fill="#FDFFFF"/>
  <path d="M26.0163 16.3894L22.6492 58.0828L24.4081 58.2248L27.7752 16.5315L26.0163 16.3894Z" fill="#FDFFFF"/>
  <path d="M33.2246 16.3932L31.4657 16.5349L34.8244 58.2282L36.5834 58.0865L33.2246 16.3932Z" fill="#FDFFFF"/>
  <path d="M29.7841 65L28.733 64.5862C28.4571 64.4768 21.9362 61.8561 15.1632 53.737C4.07617 40.4526 0.860896 22.7495 0.118908 10.2404L0 8.24272L29.6985 0L59.0593 8.1904L59.1402 9.97402C59.1592 10.3688 59.554 19.7958 56.3149 31.2205C51.9867 46.5026 43.1542 58.0034 30.783 64.4768L29.7841 65ZM5.19391 11.9336C6.09761 23.4249 9.2463 38.7498 18.7447 50.3125C23.2632 55.8155 27.6628 58.5171 29.5701 59.5159C40.2481 53.5515 47.6299 43.6346 51.5206 30.0172C53.7751 22.1264 54.1651 15.1251 54.2126 11.9717L29.6938 5.13208L5.19391 11.9336Z" fill="white"/>
  <path d="M29.708 63.6444L29.1848 63.4399C28.9232 63.3353 22.6829 60.8287 16.1097 52.9474C5.24145 39.9151 2.08325 22.4879 1.35078 10.1642L1.2937 9.16542L29.6985 1.28418L57.8655 9.14164L57.9083 10.0358C57.9273 10.4211 58.3126 19.6531 55.1306 30.8876C50.8975 45.8367 42.279 57.0712 30.2122 63.3876L29.708 63.6444ZM3.8859 11.0156C4.69923 22.8446 7.8289 39.0732 17.9028 51.2352C23.0444 57.4469 28.0338 60.1628 29.5939 60.9143C40.8997 54.8119 48.6858 44.5097 52.7286 30.2835C55.2638 21.3749 55.4635 13.5936 55.454 11.0347L29.6937 3.84784L3.8859 11.0156Z" fill="#9C1738"/>
  <path d="M32.343 16.2952L30.7354 5.81226H28.5094L26.8257 16.2952" fill="#FDFFFF"/>
  <path d="M29.5606 7.14875C31.1762 7.14875 32.4858 5.83912 32.4858 4.2236C32.4858 2.60809 31.1762 1.29846 29.5606 1.29846C27.9451 1.29846 26.6355 2.60809 26.6355 4.2236C26.6355 5.83912 27.9451 7.14875 29.5606 7.14875Z" fill="#FDFFFF"/>
  <path d="M29.5606 1.82641C30.8829 1.82641 31.9531 2.89659 31.9531 4.21885C31.9531 5.54111 30.8829 6.61128 29.5606 6.61128C28.2384 6.61128 27.1682 5.54111 27.1682 4.21885C27.1682 2.90134 28.2384 1.82641 29.5606 1.82641ZM29.5606 0.770508C27.6581 0.770508 26.1075 2.32107 26.1075 4.2236C26.1075 6.12613 27.6581 7.6767 29.5606 7.6767C31.4632 7.6767 33.0137 6.12613 33.0137 4.2236C33.0137 2.31631 31.4679 0.770508 29.5606 0.770508Z" fill="white"/>
  <path d="M29.5606 5.72189C30.3881 5.72189 31.0589 5.0511 31.0589 4.22365C31.0589 3.39619 30.3881 2.7254 29.5606 2.7254C28.7332 2.7254 28.0624 3.39619 28.0624 4.22365C28.0624 5.0511 28.7332 5.72189 29.5606 5.72189Z" fill="#18407B"/>
  <path d="M15.9289 22.8209C13.8742 22.8209 12.2047 21.1514 12.2047 19.0967C12.2047 17.042 13.8742 15.3725 15.9289 15.3725C16.4188 15.3725 16.8136 15.7673 16.8136 16.2572C16.8136 16.7471 16.4188 17.1419 15.9289 17.1419C14.8492 17.1419 13.9693 18.0218 13.9693 19.1015C13.9693 20.1811 14.8492 21.0611 15.9289 21.0611C16.7185 21.0611 17.4272 20.5902 17.7316 19.8672C17.9218 19.4201 18.4403 19.2109 18.8874 19.3964C19.3344 19.5866 19.5485 20.105 19.3582 20.5521C18.7732 21.9267 17.4272 22.8209 15.9289 22.8209Z" fill="#FDFFFF"/>
  <path d="M43.0828 22.8114C41.5846 22.8114 40.2385 21.9172 39.6535 20.5379C39.4632 20.0908 39.6725 19.5723 40.1244 19.3821C40.5715 19.1918 41.0899 19.4011 41.2801 19.8529C41.5893 20.5807 42.2932 21.0468 43.0828 21.0468C44.1625 21.0468 45.0424 20.1669 45.0424 19.0872C45.0424 18.0075 44.1625 17.1276 43.0828 17.1276C42.5929 17.1276 42.1981 16.7328 42.1981 16.2429C42.1981 15.753 42.5929 15.3582 43.0828 15.3582C45.1375 15.3582 46.807 17.0277 46.807 19.0824C46.807 21.1419 45.1375 22.8114 43.0828 22.8114Z" fill="#FDFFFF"/>
  <path d="M16.2857 17.1371C15.8005 17.1371 15.401 16.7423 15.401 16.2524C15.401 15.7625 15.7958 15.3677 16.2857 15.3677L43.0828 15.3582C43.568 15.3582 43.9675 15.753 43.9675 16.2429C43.9675 16.7328 43.5727 17.1276 43.0828 17.1276L16.2857 17.1371Z" fill="#FDFFFF"/>
  <path d="M48.0484 33.9031H39.7106C42.2076 38.6356 45.3563 38.7498 48.0484 33.9031Z" fill="#193862"/>
  <path d="M43.8343 38.1981C43.8201 38.1981 43.8106 38.1981 43.7963 38.1981C42.5977 38.1838 40.8046 37.4846 39.0875 34.2313C38.9734 34.0125 38.9781 33.7509 39.1066 33.5369C39.235 33.3228 39.4633 33.1944 39.7106 33.1944H48.0485C48.3005 33.1944 48.5288 33.3276 48.6573 33.5416C48.7857 33.7556 48.7857 34.022 48.6668 34.2408C47.2066 36.871 45.5799 38.1981 43.8343 38.1981ZM40.9425 34.607C41.8747 36.0292 42.8545 36.7759 43.8106 36.7854C43.8153 36.7854 43.8248 36.7854 43.8296 36.7854C44.7951 36.7854 45.8035 36.0387 46.7833 34.607H40.9425Z" fill="#193862"/>
  <path d="M40.3289 34.2408L39.0923 33.5606L43.939 24.6568L48.6715 33.5702L47.4254 34.2313L43.9247 27.6438L40.3289 34.2408Z" fill="#193862"/>
  <path d="M19.3963 33.9031H11.0585C13.5555 38.6356 16.7042 38.7498 19.3963 33.9031Z" fill="#FDFFFF"/>
  <path d="M15.1822 38.1981C15.168 38.1981 15.1585 38.1981 15.1442 38.1981C13.9456 38.1838 12.1525 37.4846 10.4354 34.2313C10.3213 34.0125 10.326 33.7509 10.4545 33.5369C10.5829 33.3228 10.8112 33.1944 11.0585 33.1944H19.3964C19.6484 33.1944 19.8767 33.3276 20.0052 33.5416C20.1336 33.7556 20.1336 34.022 20.0147 34.2408C18.5545 36.871 16.9278 38.1981 15.1822 38.1981ZM12.2904 34.607C13.2226 36.0292 14.2024 36.7759 15.1585 36.7854C15.1632 36.7854 15.1727 36.7854 15.1775 36.7854C16.143 36.7854 17.1514 36.0387 18.1312 34.607H12.2904Z" fill="#FDFFFF"/>
  <path d="M11.6768 34.2408L10.4402 33.5606L15.2916 24.6568L20.0194 33.5702L18.7733 34.2313L15.2726 27.6438L11.6768 34.2408Z" fill="#FDFFFF"/>
  <path d="M48.0056 33.9031H39.6677C42.1648 38.6356 45.3087 38.7498 48.0056 33.9031Z" fill="#FDFFFF"/>
  <path d="M43.7915 38.1981C43.7772 38.1981 43.7677 38.1981 43.7534 38.1981C42.5549 38.1838 40.7617 37.4846 39.0447 34.2313C38.9305 34.0125 38.9353 33.7509 39.0637 33.5369C39.1921 33.3228 39.4204 33.1944 39.6678 33.1944H48.0056C48.2577 33.1944 48.486 33.3276 48.6144 33.5416C48.7428 33.7556 48.7428 34.022 48.6239 34.2408C47.1637 36.871 45.5371 38.1981 43.7915 38.1981ZM40.8997 34.607C41.8319 36.0292 42.8117 36.7759 43.7677 36.7854C43.7725 36.7854 43.782 36.7854 43.7867 36.7854C44.7523 36.7854 45.7606 36.0387 46.7404 34.607H40.8997Z" fill="#FDFFFF"/>
  <path d="M40.2861 34.2408L39.0447 33.5606L43.8961 24.6568L48.6287 33.5702L47.3778 34.2313L43.8819 27.6438L40.2861 34.2408Z" fill="#FDFFFF"/>
  <path d="M32.343 17.5889L30.7354 6.16895H28.5094L26.8257 17.5889" fill="#FDFFFF"/>
</svg>
