<svg width="231" height="65" viewBox="0 0 231 65" fill="none" xmlns="http://www.w3.org/2000/svg">
  <g clip-path="url(#clip0_2882_8657)">
    <path d="M76.2678 22.3928C75.7731 22.1835 75.3831 21.8744 75.093 21.4796C74.8076 21.0801 74.6554 20.614 74.6506 20.0717H76.5532C76.5769 20.438 76.7054 20.7233 76.9384 20.9374C77.1715 21.1467 77.4902 21.2561 77.8992 21.2561C78.313 21.2561 78.6412 21.1562 78.879 20.9564C79.1168 20.7566 79.2357 20.495 79.2357 20.1764C79.2357 19.9148 79.1549 19.696 78.9932 19.5295C78.8315 19.3583 78.6317 19.2251 78.3891 19.13C78.1465 19.0349 77.8136 18.9255 77.3903 18.8065C76.8148 18.6353 76.3486 18.4688 75.9872 18.3071C75.6257 18.1407 75.3165 17.8933 75.0597 17.5556C74.8028 17.2227 74.6744 16.7756 74.6744 16.2143C74.6744 15.6912 74.8076 15.2345 75.0692 14.8445C75.3308 14.4545 75.7018 14.1549 76.1727 13.9503C76.6483 13.7411 77.1905 13.6412 77.7993 13.6412C78.7125 13.6412 79.4545 13.8647 80.03 14.3071C80.6008 14.7494 80.9147 15.3725 80.9766 16.1668H79.0217C79.0027 15.8624 78.8743 15.6103 78.6364 15.4105C78.3939 15.2108 78.0752 15.1109 77.6757 15.1109C77.3284 15.1109 77.0526 15.2013 76.8433 15.3772C76.634 15.5532 76.5341 15.8148 76.5341 16.1525C76.5341 16.3903 76.6102 16.5853 76.7672 16.7423C76.9242 16.8993 77.1192 17.0277 77.3522 17.1228C77.5853 17.2179 77.9135 17.3321 78.3368 17.4605C78.9123 17.6317 79.3832 17.7982 79.7447 17.9694C80.1109 18.1407 80.4201 18.3927 80.6864 18.7304C80.948 19.0681 81.0812 19.5152 81.0812 20.0622C81.0812 20.5379 80.9575 20.9754 80.715 21.3845C80.4676 21.7888 80.1109 22.117 79.6353 22.3548C79.1596 22.5973 78.5984 22.7163 77.9468 22.7163C77.3237 22.7115 76.7672 22.6069 76.2678 22.3928Z" fill="#18407B"/>
    <path d="M84.52 15.1917V17.4129H87.5022V18.8208H84.52V21.1704H87.8874V22.6163H82.7458V13.7458H87.8874V15.1917H84.52Z" fill="#18407B"/>
    <path d="M94.1944 22.6211L92.2395 19.168H91.4024V22.6211H89.6235V13.7601H92.953C93.6379 13.7601 94.2229 13.879 94.7033 14.1216C95.1837 14.3641 95.5499 14.6876 95.7877 15.1014C96.0303 15.5104 96.1492 15.9718 96.1492 16.4807C96.1492 17.0657 95.978 17.5937 95.6403 18.0598C95.3026 18.5307 94.7984 18.8541 94.1278 19.0301L96.2491 22.6259H94.1944V22.6211ZM91.4024 17.8362H92.8864C93.3668 17.8362 93.7282 17.7221 93.9661 17.489C94.2039 17.256 94.3228 16.9325 94.3228 16.5187C94.3228 16.1145 94.2039 15.7958 93.9661 15.5722C93.7282 15.3487 93.3715 15.2345 92.8864 15.2345H91.4024V17.8362Z" fill="#18407B"/>
    <path d="M105.852 13.7601L102.604 22.6259H100.444L97.1956 13.7601H99.0981L101.538 20.809L103.964 13.7601H105.852Z" fill="#18407B"/>
    <path d="M108.825 13.7601V22.6259H107.046V13.7601H108.825Z" fill="#18407B"/>
    <path d="M110.86 15.8338C111.255 15.1442 111.793 14.6067 112.473 14.2215C113.153 13.8362 113.919 13.6459 114.765 13.6459C115.755 13.6459 116.625 13.898 117.367 14.4069C118.114 14.9159 118.632 15.6198 118.927 16.514H116.882C116.677 16.0907 116.392 15.772 116.026 15.5627C115.66 15.3535 115.231 15.2441 114.751 15.2441C114.233 15.2441 113.776 15.363 113.372 15.6055C112.967 15.8481 112.658 16.1858 112.43 16.6282C112.202 17.0705 112.092 17.5842 112.092 18.1787C112.092 18.7637 112.206 19.2774 112.43 19.7198C112.654 20.1621 112.967 20.5093 113.372 20.7471C113.776 20.9897 114.233 21.1086 114.751 21.1086C115.231 21.1086 115.66 20.9992 116.026 20.7852C116.392 20.5712 116.682 20.2477 116.882 19.8244H118.927C118.632 20.7281 118.114 21.4368 117.372 21.941C116.63 22.4451 115.759 22.6972 114.761 22.6972C113.914 22.6972 113.148 22.507 112.468 22.1217C111.788 21.7365 111.25 21.199 110.856 20.5141C110.461 19.8292 110.266 19.0491 110.266 18.1787C110.271 17.3036 110.466 16.5235 110.86 15.8338Z" fill="#18407B"/>
    <path d="M122.361 15.1917V17.4129H125.343V18.8208H122.361V21.1704H125.729V22.6163H120.587V13.7458H125.729V15.1917H122.361Z" fill="#18407B"/>
    <path d="M136.74 17.8362C136.516 18.25 136.164 18.5877 135.684 18.8398C135.203 19.0919 134.604 19.2203 133.876 19.2203H132.392V22.6259H130.614V13.7601H133.876C134.561 13.7601 135.146 13.879 135.627 14.1168C136.107 14.3546 136.473 14.678 136.711 15.0966C136.954 15.5104 137.073 15.9813 137.073 16.5045C137.077 16.9753 136.963 17.4177 136.74 17.8362ZM134.894 17.4462C135.132 17.2227 135.251 16.9088 135.251 16.4997C135.251 15.6341 134.771 15.206 133.805 15.206H132.397V17.7839H133.805C134.29 17.7839 134.656 17.6698 134.894 17.4462Z" fill="#18407B"/>
    <path d="M140.212 13.7601V19.2441C140.212 19.8434 140.369 20.3048 140.683 20.6235C140.997 20.9421 141.434 21.0991 142.005 21.0991C142.58 21.0991 143.023 20.9421 143.337 20.6235C143.651 20.3048 143.808 19.8482 143.808 19.2441V13.7601H145.596V19.2346C145.596 19.9861 145.434 20.6235 145.106 21.1466C144.778 21.6651 144.345 22.0599 143.798 22.3215C143.251 22.5831 142.642 22.7162 141.976 22.7162C141.315 22.7162 140.716 22.5831 140.178 22.3215C139.641 22.0599 139.213 21.6651 138.904 21.1466C138.595 20.6282 138.433 19.9909 138.433 19.2346V13.7601H140.212Z" fill="#18407B"/>
    <path d="M153.701 18.8256C154.024 19.2299 154.181 19.696 154.181 20.2239C154.181 20.6996 154.062 21.1134 153.834 21.4748C153.601 21.8363 153.263 22.1169 152.826 22.3215C152.388 22.526 151.865 22.6259 151.265 22.6259H147.441V13.7601H151.099C151.698 13.7601 152.217 13.86 152.654 14.0502C153.092 14.2452 153.42 14.5163 153.644 14.8635C153.867 15.2108 153.981 15.6055 153.981 16.0431C153.981 16.5615 153.843 16.9896 153.568 17.3368C153.292 17.684 152.925 17.9314 152.469 18.0741C152.968 18.1692 153.377 18.4165 153.701 18.8256ZM149.216 17.4177H150.842C151.266 17.4177 151.594 17.3226 151.822 17.1323C152.05 16.9421 152.164 16.6709 152.164 16.3142C152.164 15.9575 152.05 15.6816 151.822 15.4866C151.594 15.2916 151.266 15.1965 150.842 15.1965H149.216V17.4177ZM152.017 20.8708C152.26 20.6663 152.378 20.3809 152.378 20.0051C152.378 19.6246 152.25 19.325 151.998 19.1109C151.746 18.8969 151.403 18.7875 150.971 18.7875H149.22V21.1752H151.009C151.437 21.1752 151.774 21.0705 152.017 20.8708Z" fill="#18407B"/>
    <path d="M157.511 21.2132H160.431V22.6211H155.732V13.7601H157.511V21.2132Z" fill="#18407B"/>
    <path d="M163.466 13.7601V22.6259H161.687V13.7601H163.466Z" fill="#18407B"/>
    <path d="M165.501 15.8338C165.896 15.1442 166.434 14.6067 167.114 14.2215C167.794 13.8362 168.56 13.6459 169.406 13.6459C170.396 13.6459 171.266 13.898 172.008 14.4069C172.755 14.9159 173.273 15.6198 173.568 16.514H171.523C171.318 16.0907 171.033 15.772 170.667 15.5627C170.3 15.3535 169.872 15.2441 169.392 15.2441C168.874 15.2441 168.417 15.363 168.013 15.6055C167.608 15.8481 167.299 16.1858 167.071 16.6282C166.843 17.0705 166.733 17.5842 166.733 18.1787C166.733 18.7637 166.847 19.2774 167.071 19.7198C167.294 20.1621 167.608 20.5093 168.013 20.7471C168.417 20.985 168.874 21.1086 169.392 21.1086C169.872 21.1086 170.3 20.9992 170.667 20.7852C171.033 20.5712 171.323 20.2477 171.523 19.8244H173.568C173.273 20.7281 172.755 21.4368 172.013 21.941C171.271 22.4451 170.4 22.6972 169.401 22.6972C168.555 22.6972 167.789 22.507 167.109 22.1217C166.429 21.7365 165.891 21.199 165.497 20.5141C165.102 19.8292 164.907 19.0491 164.907 18.1787C164.911 17.3036 165.111 16.5235 165.501 15.8338Z" fill="#18407B"/>
    <path d="M183.846 13.7601V15.1965H180.151V17.47H182.981V18.8779H180.151V22.6259H178.372V13.7601H183.846Z" fill="#18407B"/>
    <path d="M187.009 15.1917V17.4129H189.992V18.8208H187.009V21.1704H190.377V22.6163H185.235V13.7458H190.377V15.1917H187.009ZM189.131 11.9146L186.21 13.2464V11.9764L189.131 10.4639V11.9146Z" fill="#18407B"/>
    <path d="M197.668 14.3023C198.377 14.6685 198.919 15.187 199.304 15.8576C199.69 16.533 199.88 17.313 199.88 18.2025C199.88 19.0919 199.685 19.8672 199.304 20.5331C198.919 21.199 198.372 21.7127 197.668 22.0741C196.959 22.4404 196.141 22.6211 195.209 22.6211H192.113V13.7601H195.209C196.141 13.7601 196.959 13.9408 197.668 14.3023ZM197.307 20.3476C197.816 19.8387 198.068 19.1252 198.068 18.2025C198.068 17.2798 197.816 16.5568 197.307 16.0384C196.798 15.5199 196.08 15.2583 195.147 15.2583H193.892V21.1134H195.147C196.08 21.1086 196.798 20.8565 197.307 20.3476Z" fill="#18407B"/>
    <path d="M203.124 15.1917V17.4129H206.106V18.8208H203.124V21.1704H206.491V22.6163H201.35V13.7458H206.491V15.1917H203.124ZM205.245 11.9146L202.325 13.2464V11.9764L205.245 10.4639V11.9146Z" fill="#18407B"/>
    <path d="M212.798 22.6211L210.843 19.168H210.006V22.6211H208.227V13.7601H211.557C212.242 13.7601 212.827 13.879 213.307 14.1216C213.787 14.3641 214.154 14.6876 214.391 15.1014C214.634 15.5104 214.753 15.9718 214.753 16.4807C214.753 17.0657 214.582 17.5937 214.244 18.0598C213.906 18.5259 213.402 18.8541 212.732 19.0301L214.853 22.6259H212.798V22.6211ZM210.006 17.8362H211.49C211.971 17.8362 212.332 17.7221 212.57 17.489C212.808 17.256 212.927 16.9325 212.927 16.5187C212.927 16.1145 212.808 15.7958 212.57 15.5722C212.332 15.3487 211.975 15.2345 211.49 15.2345H210.006V17.8362Z" fill="#18407B"/>
    <path d="M221.93 20.9326H218.401L217.816 22.6211H215.952L219.138 13.7458H221.207L224.394 22.6211H222.515L221.93 20.9326ZM221.445 19.5105L220.161 15.8005L218.877 19.5105H221.445Z" fill="#18407B"/>
    <path d="M227.491 21.2132H230.411V22.6211H225.712V13.7601H227.491V21.2132Z" fill="#18407B"/>
    <path d="M78.7221 29.9791V43.8058C78.7221 45.7226 78.1656 47.2161 77.0574 48.2767C75.9492 49.3421 74.4605 49.8701 72.6007 49.8701C70.7172 49.8701 69.2 49.3231 68.0442 48.2339C66.8884 47.1447 66.3081 45.6179 66.3081 43.6631H70.2606C70.2796 44.5097 70.4794 45.1661 70.8694 45.637C71.2547 46.1078 71.8159 46.3409 72.5484 46.3409C73.2619 46.3409 73.8088 46.1174 74.1846 45.6655C74.5603 45.2137 74.7506 44.5953 74.7506 43.801V29.9791H78.7221Z" fill="#18407B"/>
    <path d="M87.4974 29.9791V42.1696C87.4974 43.5061 87.8447 44.524 88.5438 45.2327C89.2383 45.9366 90.2181 46.2933 91.4785 46.2933C92.7579 46.2933 93.7473 45.9414 94.4417 45.2327C95.1361 44.5287 95.4881 43.5061 95.4881 42.1696V29.9791H99.4691V42.1411C99.4691 43.8153 99.1076 45.2327 98.3847 46.3885C97.6617 47.5443 96.6914 48.4147 95.4786 48.9997C94.2657 49.5847 92.9149 49.8749 91.4309 49.8749C89.9612 49.8749 88.6342 49.5847 87.4356 48.9997C86.2418 48.4147 85.2953 47.5443 84.6008 46.3885C83.9064 45.2327 83.5544 43.8153 83.5544 42.1411V29.9791H87.4974Z" fill="#18407B"/>
    <path d="M106.646 49.1662C105.548 48.6953 104.677 48.0199 104.035 47.1352C103.393 46.2506 103.065 45.2089 103.046 44.0008H107.279C107.336 44.8094 107.621 45.4515 108.14 45.9176C108.658 46.3885 109.367 46.6216 110.271 46.6216C111.193 46.6216 111.916 46.4028 112.444 45.9604C112.972 45.5181 113.234 44.9378 113.234 44.2244C113.234 43.6393 113.053 43.1637 112.696 42.7832C112.34 42.4075 111.893 42.1126 111.355 41.8938C110.818 41.6797 110.081 41.4372 109.139 41.1756C107.859 40.7998 106.818 40.4288 106.019 40.0626C105.22 39.6963 104.535 39.1399 103.959 38.3979C103.384 37.6559 103.098 36.6618 103.098 35.4204C103.098 34.2551 103.388 33.2373 103.973 32.3716C104.558 31.5059 105.377 30.8448 106.428 30.3835C107.479 29.9221 108.687 29.6938 110.038 29.6938C112.069 29.6938 113.719 30.1884 114.989 31.173C116.259 32.1576 116.958 33.5369 117.091 35.3063H112.744C112.706 34.6309 112.421 34.0696 111.883 33.6273C111.346 33.1849 110.637 32.9661 109.752 32.9661C108.982 32.9661 108.363 33.1659 107.902 33.5607C107.441 33.9555 107.212 34.531 107.212 35.2825C107.212 35.8104 107.388 36.248 107.736 36.5952C108.083 36.9424 108.516 37.2278 109.034 37.4418C109.553 37.6606 110.28 37.908 111.222 38.1886C112.501 38.5643 113.543 38.9401 114.356 39.3158C115.165 39.6916 115.859 40.2576 116.444 41.0091C117.03 41.7606 117.32 42.7499 117.32 43.9723C117.32 45.0282 117.049 46.0032 116.502 46.9069C115.955 47.8106 115.156 48.5289 114.104 49.0663C113.048 49.6038 111.798 49.8701 110.352 49.8701C108.982 49.8749 107.745 49.6371 106.646 49.1662Z" fill="#18407B"/>
    <path d="M134.428 29.9791V33.1659H129.177V49.6751H125.225V33.1659H119.974V29.9791H134.428Z" fill="#18407B"/>
    <path d="M141.539 29.9791V49.6751H137.586V29.9791H141.539Z" fill="#18407B"/>
    <path d="M146.067 34.5928C146.942 33.0612 148.136 31.8674 149.653 31.0065C151.166 30.1504 152.864 29.7223 154.747 29.7223C156.949 29.7223 158.876 30.2883 160.531 31.4155C162.186 32.5428 163.342 34.1076 164.003 36.1005H159.461C159.009 35.1588 158.376 34.4548 157.558 33.984C156.74 33.5131 155.794 33.28 154.723 33.28C153.577 33.28 152.555 33.5464 151.66 34.0838C150.766 34.6213 150.072 35.3776 149.572 36.3574C149.073 37.3372 148.826 38.4834 148.826 39.801C148.826 41.0994 149.073 42.2409 149.572 43.2303C150.072 44.2196 150.766 44.9806 151.66 45.5181C152.555 46.0555 153.572 46.3219 154.723 46.3219C155.794 46.3219 156.74 46.0841 157.558 45.6037C158.376 45.1233 159.014 44.4146 159.461 43.4728H164.003C163.347 45.4848 162.191 47.0544 160.545 48.1721C158.899 49.2898 156.964 49.8511 154.747 49.8511C152.864 49.8511 151.166 49.423 149.653 48.5669C148.141 47.7107 146.942 46.5216 146.067 44.9996C145.192 43.4776 144.754 41.7463 144.754 39.8057C144.754 37.8604 145.192 36.1243 146.067 34.5928Z" fill="#18407B"/>
    <path d="M171.623 33.1659V38.103H178.253V41.2374H171.623V46.4598H179.1V49.6751H167.67V29.9506H179.1V33.1659H171.623Z" fill="#18407B"/>
    <path d="M29.6367 63.6968C29.4845 63.6968 29.3323 63.6682 29.1848 63.6112C28.9232 63.5065 22.6829 60.9999 16.1097 53.1187C5.24148 40.0911 2.08328 22.6639 1.3508 10.3355C1.31751 9.75525 1.69326 9.2273 2.25451 9.07034L29.3656 1.54582C29.5844 1.48399 29.8127 1.48399 30.0267 1.54582L56.9999 9.07034C57.5135 9.21303 57.8798 9.66964 57.9036 10.2023C57.9226 10.5876 58.3078 19.8196 55.1259 31.0541C50.8927 46.0032 42.2743 57.2377 30.2075 63.5541C30.0315 63.6492 29.8317 63.6968 29.6367 63.6968ZM3.88593 11.1869C4.69926 23.0159 7.82892 39.2445 17.9028 51.4064C23.0444 57.6134 28.0338 60.3341 29.5939 61.0856C54.3839 47.6917 55.4683 16.8327 55.454 11.2059L29.6938 4.02387L3.88593 11.1869Z" fill="#961638"/>
    <path d="M4.85144 11.5436L29.6842 4.37109L55.045 11.8766C55.045 11.8766 55.454 45.7274 29.6367 59.2354C29.6367 59.2354 7.12497 49.7703 4.85144 11.5436Z" fill="#18407B"/>
    <path d="M28.4286 61.3281L29.1468 14.678H30.1218L30.6831 61.3281H28.4286Z" fill="#FDFFFF"/>
    <path d="M31.0398 61.6801H28.0671L28.7949 14.326H30.4691L31.0398 61.6801ZM28.7853 60.9761H30.3264L29.7747 15.0347H29.494L28.7853 60.9761Z" fill="#FDFFFF"/>
    <path d="M26.0161 16.3893L22.649 58.0826L24.408 58.2247L27.7751 16.5314L26.0161 16.3893Z" fill="#FDFFFF"/>
    <path d="M33.2246 16.3932L31.4657 16.5349L34.8244 58.2282L36.5834 58.0865L33.2246 16.3932Z" fill="#FDFFFF"/>
    <path d="M29.7841 65L28.733 64.5862C28.4571 64.4768 21.9362 61.8561 15.1632 53.737C4.07617 40.4526 0.860896 22.7495 0.118908 10.2404L0 8.24272L29.6985 0L59.0593 8.1904L59.1402 9.97402C59.1592 10.3688 59.554 19.7958 56.3149 31.2205C51.9867 46.5026 43.1542 58.0034 30.783 64.4768L29.7841 65ZM5.19391 11.9336C6.09761 23.4249 9.2463 38.7498 18.7447 50.3125C23.2632 55.8155 27.6628 58.5171 29.5701 59.5159C52.1199 46.8974 54.0937 19.2251 54.2126 11.9717L29.6938 5.13208L5.19391 11.9336Z" fill="white"/>
    <path d="M29.708 63.6444L29.1848 63.4399C28.9232 63.3353 22.6829 60.8287 16.1097 52.9474C5.24145 39.9151 2.08325 22.4879 1.35078 10.1642L1.2937 9.16542L29.6985 1.28418L57.8655 9.14164L57.9083 10.0358C57.9273 10.4211 58.3126 19.6531 55.1306 30.8876C50.8975 45.8367 42.279 57.0712 30.2122 63.3876L29.708 63.6444ZM3.8859 11.0156C4.69923 22.8446 7.8289 39.0732 17.9028 51.2352C23.0444 57.4422 28.0338 60.1628 29.5939 60.9143C54.3839 47.5205 55.4683 16.6614 55.454 11.0347L29.6937 3.84784L3.8859 11.0156Z" fill="#9C1738"/>
    <path d="M32.343 16.2952L30.7354 5.81226H28.5094L26.8257 16.2952" fill="#FDFFFF"/>
    <path d="M29.5606 7.14875C27.9482 7.14875 26.6355 5.836 26.6355 4.2236C26.6355 2.61121 27.9482 1.29846 29.5606 1.29846C31.173 1.29846 32.4858 2.61121 32.4858 4.2236C32.4858 5.836 31.173 7.14875 29.5606 7.14875Z" fill="#FDFFFF"/>
    <path d="M29.5606 1.82641C30.8829 1.82641 31.9531 2.89659 31.9531 4.21885C31.9531 5.54111 30.8829 6.61128 29.5606 6.61128C28.2384 6.61128 27.1682 5.54111 27.1682 4.21885C27.1682 2.90134 28.2384 1.82641 29.5606 1.82641ZM29.5606 0.770508C27.6581 0.770508 26.1075 2.32107 26.1075 4.2236C26.1075 6.12613 27.6581 7.6767 29.5606 7.6767C31.4632 7.6767 33.0137 6.12613 33.0137 4.2236C33.0137 2.32107 31.4679 0.770508 29.5606 0.770508Z" fill="white"/>
    <path d="M29.5606 5.72189C30.3881 5.72189 31.0589 5.0511 31.0589 4.22365C31.0589 3.39619 30.3881 2.7254 29.5606 2.7254C28.7332 2.7254 28.0624 3.39619 28.0624 4.22365C28.0624 5.0511 28.7332 5.72189 29.5606 5.72189Z" fill="#18407B"/>
    <path d="M15.9289 22.8209C13.8742 22.8209 12.2047 21.1514 12.2047 19.0967C12.2047 17.042 13.8742 15.3725 15.9289 15.3725C16.4188 15.3725 16.8136 15.7673 16.8136 16.2572C16.8136 16.7471 16.4188 17.1419 15.9289 17.1419C14.8492 17.1419 13.9693 18.0218 13.9693 19.1015C13.9693 20.1811 14.8492 21.0611 15.9289 21.0611C16.7185 21.0611 17.4272 20.5902 17.7316 19.8672C17.9218 19.4201 18.4403 19.2109 18.8874 19.3964C19.3344 19.5866 19.5485 20.105 19.3582 20.5521C18.7732 21.9267 17.4272 22.8209 15.9289 22.8209Z" fill="#FDFFFF"/>
    <path d="M43.0828 22.8114C41.5846 22.8114 40.2385 21.9172 39.6535 20.5379C39.4632 20.0908 39.6725 19.5723 40.1244 19.3821C40.5715 19.1918 41.0899 19.4011 41.2801 19.8529C41.5893 20.5807 42.2932 21.0468 43.0828 21.0468C44.1625 21.0468 45.0424 20.1669 45.0424 19.0872C45.0424 18.0075 44.1625 17.1276 43.0828 17.1276C42.5929 17.1276 42.1981 16.7328 42.1981 16.2429C42.1981 15.753 42.5929 15.3582 43.0828 15.3582C45.1375 15.3582 46.807 17.0277 46.807 19.0824C46.807 21.1419 45.1375 22.8114 43.0828 22.8114Z" fill="#FDFFFF"/>
    <path d="M16.2857 17.1371C15.8005 17.1371 15.401 16.7423 15.401 16.2524C15.401 15.7625 15.7958 15.3677 16.2857 15.3677L43.0828 15.3582C43.568 15.3582 43.9675 15.753 43.9675 16.2429C43.9675 16.7328 43.5727 17.1276 43.0828 17.1276L16.2857 17.1371Z" fill="#FDFFFF"/>
    <path d="M48.0484 33.9031H39.7106C42.2076 38.6356 45.3563 38.7498 48.0484 33.9031Z" fill="#193862"/>
    <path d="M43.8343 38.1981C43.8201 38.1981 43.8106 38.1981 43.7963 38.1981C42.5977 38.1838 40.8046 37.4846 39.0875 34.2313C38.9734 34.0125 38.9781 33.7509 39.1066 33.5369C39.235 33.3228 39.4633 33.1944 39.7106 33.1944H48.0485C48.3005 33.1944 48.5288 33.3276 48.6573 33.5416C48.7857 33.7556 48.7857 34.022 48.6668 34.2408C47.2066 36.871 45.5799 38.1981 43.8343 38.1981ZM40.9425 34.607C41.8747 36.0292 42.8545 36.7759 43.8106 36.7854C43.8153 36.7854 43.8248 36.7854 43.8296 36.7854C44.7951 36.7854 45.8035 36.0387 46.7833 34.607H40.9425Z" fill="#193862"/>
    <path d="M40.3289 34.2408L39.0875 33.5606L43.939 24.6568L48.6715 33.5702L47.4254 34.2313L43.9247 27.6438L40.3289 34.2408Z" fill="#193862"/>
    <path d="M19.3963 33.9031H11.0585C13.5555 38.6356 16.7042 38.7498 19.3963 33.9031Z" fill="#FDFFFF"/>
    <path d="M15.1822 38.1981C15.168 38.1981 15.1585 38.1981 15.1442 38.1981C13.9456 38.1838 12.1525 37.4846 10.4354 34.2313C10.3213 34.0125 10.326 33.7509 10.4545 33.5369C10.5829 33.3228 10.8112 33.1944 11.0585 33.1944H19.3964C19.6484 33.1944 19.8767 33.3276 20.0052 33.5416C20.1336 33.7556 20.1336 34.022 20.0147 34.2408C18.5545 36.871 16.9278 38.1981 15.1822 38.1981ZM12.2904 34.607C13.2226 36.0292 14.2024 36.7759 15.1585 36.7854C15.1632 36.7854 15.1727 36.7854 15.1775 36.7854C16.143 36.7854 17.1514 36.0387 18.1312 34.607H12.2904Z" fill="#FDFFFF"/>
    <path d="M11.6768 34.2408L10.4354 33.5606L15.2869 24.6568L20.0194 33.5702L18.7733 34.2313L15.2726 27.6438L11.6768 34.2408Z" fill="#FDFFFF"/>
    <path d="M48.0056 33.9031H39.6677C42.1648 38.6356 45.3087 38.7498 48.0056 33.9031Z" fill="#FDFFFF"/>
    <path d="M43.7915 38.1981C43.7772 38.1981 43.7677 38.1981 43.7534 38.1981C42.5549 38.1838 40.7617 37.4846 39.0447 34.2313C38.9305 34.0125 38.9353 33.7509 39.0637 33.5369C39.1921 33.3228 39.4204 33.1944 39.6678 33.1944H48.0056C48.2577 33.1944 48.486 33.3276 48.6144 33.5416C48.7428 33.7556 48.7428 34.022 48.6239 34.2408C47.1637 36.871 45.5371 38.1981 43.7915 38.1981ZM40.8997 34.607C41.8319 36.0292 42.8117 36.7759 43.7677 36.7854C43.7725 36.7854 43.782 36.7854 43.7867 36.7854C44.7523 36.7854 45.7606 36.0387 46.7404 34.607H40.8997Z" fill="#FDFFFF"/>
    <path d="M40.2861 34.2408L39.0447 33.5606L43.8961 24.6568L48.6287 33.5702L47.3778 34.2313L43.8819 27.6438L40.2861 34.2408Z" fill="#FDFFFF"/>
    <path d="M32.343 17.5889L30.7354 6.16895H28.5094L26.8257 17.5889" fill="#FDFFFF"/>
  </g>
  <defs>
    <clipPath id="clip0_2882_8657">
      <rect width="230.411" height="65" fill="white"/>
    </clipPath>
  </defs>
</svg>
