<svg width="288" height="65" viewBox="0 0 288 65" fill="none" xmlns="http://www.w3.org/2000/svg">
  <g clip-path="url(#clip0_2882_8531)">
    <path d="M80.677 13.4176V14.8778H76.9147V17.1941H79.797V18.6305H76.9147V22.4451H75.1025V13.4176H80.677Z" fill="#18407B"/>
    <path d="M83.8207 21.9409C83.112 21.5462 82.5508 20.9944 82.137 20.2905C81.7232 19.5865 81.5139 18.7922 81.5139 17.9028C81.5139 17.0229 81.7232 16.2333 82.137 15.5294C82.5508 14.8255 83.112 14.2785 83.8207 13.879C84.5294 13.4842 85.3047 13.2844 86.1466 13.2844C86.998 13.2844 87.778 13.4842 88.4819 13.879C89.1859 14.2737 89.7424 14.8255 90.1514 15.5294C90.5604 16.2333 90.765 17.0229 90.765 17.9028C90.765 18.7922 90.5604 19.5865 90.1514 20.2905C89.7424 20.9944 89.1811 21.5414 88.4772 21.9409C87.7732 22.3405 86.9932 22.5355 86.1513 22.5355C85.3047 22.5355 84.5294 22.3405 83.8207 21.9409ZM87.5877 20.5521C88.0015 20.3048 88.325 19.9528 88.558 19.4962C88.7911 19.0396 88.9052 18.5069 88.9052 17.9076C88.9052 17.3035 88.7911 16.7756 88.558 16.3237C88.325 15.8719 88.0015 15.5246 87.5877 15.2821C87.1739 15.0395 86.6936 14.9206 86.1513 14.9206C85.6091 14.9206 85.1287 15.0395 84.7102 15.2821C84.2916 15.5246 83.9682 15.8719 83.7351 16.3237C83.5021 16.7756 83.3879 17.3035 83.3879 17.9076C83.3879 18.5116 83.5021 19.0396 83.7351 19.4962C83.9682 19.9528 84.2916 20.3048 84.7102 20.5521C85.1287 20.7994 85.6091 20.9183 86.1513 20.9183C86.6936 20.9183 87.1739 20.7994 87.5877 20.5521ZM84.3392 12.3094C84.1775 12.1476 84.0918 11.9431 84.0918 11.7006C84.0918 11.458 84.1727 11.2535 84.3392 11.087C84.5009 10.9205 84.7054 10.8349 84.948 10.8349C85.1906 10.8349 85.3951 10.9205 85.5615 11.087C85.728 11.2535 85.8136 11.458 85.8136 11.7006C85.8136 11.9431 85.728 12.1429 85.5615 12.3094C85.3951 12.4711 85.1906 12.5567 84.948 12.5567C84.7054 12.5519 84.5009 12.4711 84.3392 12.3094ZM86.7316 12.3094C86.5699 12.1476 86.4843 11.9431 86.4843 11.7006C86.4843 11.458 86.5651 11.2535 86.7316 11.087C86.8981 10.9205 87.0978 10.8349 87.3404 10.8349C87.583 10.8349 87.7875 10.9205 87.954 11.087C88.1205 11.2535 88.2061 11.458 88.2061 11.7006C88.2061 11.9431 88.1205 12.1429 87.954 12.3094C87.7875 12.4711 87.583 12.5567 87.3404 12.5567C87.0978 12.5519 86.8933 12.4711 86.7316 12.3094Z" fill="#18407B"/>
    <path d="M97.771 13.9741C98.4892 14.3451 99.0457 14.873 99.4405 15.558C99.8305 16.2429 100.03 17.0372 100.03 17.9456C100.03 18.8541 99.8352 19.6436 99.4405 20.319C99.0457 20.9944 98.494 21.5224 97.771 21.8886C97.048 22.2549 96.2157 22.4451 95.2692 22.4451H92.1157V13.4176H95.2692C96.2157 13.4176 97.0528 13.6031 97.771 13.9741ZM97.4 20.1335C97.9184 19.6151 98.1753 18.8874 98.1753 17.9456C98.1753 17.0039 97.9184 16.2714 97.4 15.7387C96.8816 15.2107 96.1491 14.9444 95.2026 14.9444H93.9231V20.9088H95.2026C96.1538 20.9088 96.8863 20.652 97.4 20.1335Z" fill="#18407B"/>
    <path d="M103.198 14.8825V17.1466H106.237V18.583H103.198V20.9754H106.627V22.4499H101.391V13.4081H106.627V14.8825H103.198Z" fill="#18407B"/>
    <path d="M112.92 22.4451L110.927 18.9254H110.076V22.4451H108.264V13.4176H111.65C112.349 13.4176 112.944 13.5413 113.434 13.7886C113.924 14.0359 114.295 14.3641 114.537 14.7827C114.78 15.2012 114.904 15.6673 114.904 16.1858C114.904 16.7803 114.732 17.3178 114.385 17.7982C114.038 18.2786 113.529 18.6068 112.844 18.7875L115.003 22.4499H112.92V22.4451ZM110.076 17.5699H111.588C112.078 17.5699 112.444 17.451 112.687 17.2132C112.93 16.9753 113.049 16.6472 113.049 16.2238C113.049 15.81 112.93 15.4866 112.687 15.2583C112.444 15.03 112.078 14.9158 111.588 14.9158H110.076V17.5699Z" fill="#18407B"/>
    <path d="M122.09 20.7281H118.494L117.9 22.4499H115.997L119.246 13.4081H121.353L124.602 22.4499H122.689L122.09 20.7281ZM121.6 19.2774L120.292 15.5009L118.984 19.2774H121.6Z" fill="#18407B"/>
    <path d="M127.627 21.0135H130.599V22.4499H125.814V13.4176H127.627V21.0135Z" fill="#18407B"/>
    <path d="M133.563 14.8825V17.1466H136.602V18.583H133.563V20.9754H136.992V22.4499H131.755V13.4081H136.992V14.8825H133.563Z" fill="#18407B"/>
    <path d="M143.289 22.4451L141.296 18.9254H140.445V22.4451H138.633V13.4176H142.019C142.718 13.4176 143.313 13.5413 143.803 13.7886C144.293 14.0359 144.664 14.3641 144.911 14.7827C145.159 15.2012 145.282 15.6673 145.282 16.1858C145.282 16.7803 145.111 17.3178 144.764 17.7982C144.417 18.2786 143.908 18.6068 143.223 18.7875L145.382 22.4499H143.289V22.4451ZM140.445 17.5699H141.957C142.447 17.5699 142.814 17.451 143.056 17.2132C143.299 16.9753 143.418 16.6472 143.418 16.2238C143.418 15.81 143.299 15.4866 143.056 15.2583C142.814 15.03 142.447 14.9158 141.957 14.9158H140.445V17.5699Z" fill="#18407B"/>
    <path d="M151.865 21.9409C151.156 21.5462 150.595 20.9944 150.181 20.2905C149.767 19.5865 149.563 18.7922 149.563 17.9028C149.563 17.0229 149.767 16.2333 150.181 15.5294C150.595 14.8255 151.156 14.2785 151.865 13.879C152.573 13.4794 153.349 13.2844 154.191 13.2844C155.042 13.2844 155.822 13.4842 156.526 13.879C157.23 14.2737 157.786 14.8255 158.195 15.5294C158.605 16.2333 158.809 17.0229 158.809 17.9028C158.809 18.7922 158.605 19.5865 158.195 20.2905C157.786 20.9944 157.225 21.5414 156.521 21.9409C155.817 22.3405 155.037 22.5355 154.195 22.5355C153.349 22.5355 152.573 22.3405 151.865 21.9409ZM155.627 20.5521C156.041 20.3048 156.364 19.9528 156.597 19.4962C156.83 19.0396 156.945 18.5069 156.945 17.9076C156.945 17.3035 156.826 16.7756 156.597 16.3237C156.364 15.8719 156.041 15.5246 155.627 15.2821C155.213 15.0395 154.733 14.9206 154.191 14.9206C153.648 14.9206 153.168 15.0395 152.749 15.2821C152.331 15.5246 152.007 15.8719 151.774 16.3237C151.541 16.7756 151.427 17.3035 151.427 17.9076C151.427 18.5116 151.546 19.0396 151.774 19.4962C152.007 19.9528 152.331 20.3048 152.749 20.5521C153.168 20.7994 153.648 20.9183 154.191 20.9183C154.738 20.9231 155.213 20.7994 155.627 20.5521ZM152.383 12.3094C152.222 12.1476 152.136 11.9431 152.136 11.7006C152.136 11.458 152.217 11.2535 152.383 11.087C152.545 10.9205 152.749 10.8349 152.992 10.8349C153.235 10.8349 153.439 10.9205 153.606 11.087C153.772 11.2535 153.858 11.458 153.858 11.7006C153.858 11.9431 153.772 12.1429 153.606 12.3094C153.439 12.4711 153.235 12.5567 152.992 12.5567C152.749 12.5519 152.545 12.4711 152.383 12.3094ZM154.776 12.3094C154.614 12.1476 154.528 11.9431 154.528 11.7006C154.528 11.458 154.609 11.2535 154.776 11.087C154.942 10.9205 155.142 10.8349 155.384 10.8349C155.627 10.8349 155.832 10.9205 155.998 11.087C156.165 11.2535 156.25 11.458 156.25 11.7006C156.25 11.9431 156.165 12.1429 155.998 12.3094C155.832 12.4711 155.627 12.5567 155.384 12.5567C155.142 12.5519 154.937 12.4711 154.776 12.3094Z" fill="#18407B"/>
    <path d="M165.729 13.4176V14.8778H161.967V17.1941H164.85V18.6305H161.967V22.4451H160.155V13.4176H165.729Z" fill="#18407B"/>
    <path d="M172.583 13.4176V14.8778H168.821V17.1941H171.704V18.6305H168.821V22.4451H167.009V13.4176H172.583Z" fill="#18407B"/>
    <path d="M175.675 14.8825V17.1466H178.714V18.583H175.675V20.9754H179.104V22.4499H173.868V13.4081H179.104V14.8825H175.675Z" fill="#18407B"/>
    <path d="M188.465 22.4451H186.653L182.553 16.2476V22.4451H180.74V13.4081H182.553L186.653 19.6151V13.4081H188.465V22.4451Z" fill="#18407B"/>
    <path d="M196.394 13.4176V14.8778H193.987V22.4451H192.175V14.8826H189.768V13.4224H196.394V13.4176Z" fill="#18407B"/>
    <path d="M199.523 21.0135H202.496V22.4499H197.711V13.4176H199.523V21.0135Z" fill="#18407B"/>
    <path d="M205.459 13.4176V22.4451H203.647V13.4176H205.459Z" fill="#18407B"/>
    <path d="M207.409 15.5342C207.809 14.8302 208.356 14.2833 209.05 13.8933C209.745 13.4985 210.52 13.3035 211.386 13.3035C212.394 13.3035 213.279 13.5603 214.035 14.0787C214.791 14.5972 215.324 15.3106 215.623 16.2239H213.54C213.331 15.791 213.041 15.4676 212.665 15.2536C212.289 15.0395 211.856 14.9301 211.367 14.9301C210.839 14.9301 210.372 15.0538 209.963 15.3011C209.554 15.5485 209.236 15.8957 209.007 16.3428C208.779 16.7899 208.665 17.3178 208.665 17.9219C208.665 18.5164 208.779 19.0396 209.007 19.4915C209.236 19.9433 209.554 20.2953 209.963 20.5378C210.372 20.7852 210.839 20.9041 211.367 20.9041C211.856 20.9041 212.289 20.7947 212.665 20.5759C213.041 20.3571 213.331 20.0289 213.54 19.6008H215.623C215.324 20.5236 214.791 21.2418 214.04 21.7555C213.283 22.2691 212.399 22.526 211.381 22.526C210.52 22.526 209.74 22.331 209.045 21.9362C208.351 21.5462 207.804 20.9992 207.404 20.3C207.005 19.6008 206.805 18.8065 206.805 17.9219C206.805 17.0324 207.005 16.2381 207.409 15.5342Z" fill="#18407B"/>
    <path d="M224.665 13.4176V22.4451H222.853V18.602H218.986V22.4451H217.174V13.4176H218.986V17.1275H222.853V13.4176H224.665Z" fill="#18407B"/>
    <path d="M228.261 14.8825V17.1466H231.3V18.583H228.261V20.9754H231.69V22.4499H226.454V13.4081H231.69V14.8825H228.261Z" fill="#18407B"/>
    <path d="M237.988 22.4451L235.995 18.9254H235.143V22.4451H233.331V13.4176H236.718C237.417 13.4176 238.012 13.5413 238.501 13.7886C238.991 14.0359 239.362 14.3641 239.61 14.7827C239.857 15.2012 239.981 15.6673 239.981 16.1858C239.981 16.7803 239.809 17.3178 239.462 17.7982C239.115 18.2786 238.606 18.6068 237.921 18.7875L240.081 22.4499H237.988V22.4451ZM235.143 17.5699H236.656C237.146 17.5699 237.512 17.451 237.755 17.2132C237.997 16.9753 238.116 16.6472 238.116 16.2238C238.116 15.81 237.997 15.4866 237.755 15.2583C237.512 15.03 237.146 14.9158 236.656 14.9158H235.143V17.5699Z" fill="#18407B"/>
    <path d="M250.359 13.9741C251.077 14.3451 251.634 14.873 252.028 15.558C252.418 16.2429 252.618 17.0372 252.618 17.9456C252.618 18.8541 252.423 19.6436 252.028 20.319C251.634 20.9944 251.077 21.5224 250.359 21.8886C249.641 22.2596 248.804 22.4451 247.857 22.4451H244.704V13.4176H247.857C248.804 13.4176 249.641 13.6031 250.359 13.9741ZM249.993 20.1335C250.511 19.6151 250.768 18.8874 250.768 17.9456C250.768 17.0039 250.511 16.2714 249.993 15.7387C249.474 15.2107 248.742 14.9444 247.795 14.9444H246.516V20.9088H247.795C248.742 20.9088 249.474 20.652 249.993 20.1335Z" fill="#18407B"/>
    <path d="M255.786 13.4176V22.4451H253.974V13.4176H255.786Z" fill="#18407B"/>
    <path d="M259.382 14.8825V17.1466H262.421V18.583H259.382V20.9754H262.811V22.4499H257.574V13.4081H262.811V14.8825H259.382Z" fill="#18407B"/>
    <path d="M272.171 22.4451H270.359L266.259 16.2476V22.4451H264.452V13.4081H266.264L270.364 19.6151V13.4081H272.176V22.4451H272.171Z" fill="#18407B"/>
    <path d="M275.373 22.2168C274.868 22.0028 274.469 21.6889 274.179 21.2846C273.884 20.8803 273.736 20.3999 273.727 19.8482H275.667C275.691 20.2192 275.824 20.514 276.062 20.7281C276.3 20.9421 276.623 21.0515 277.037 21.0515C277.461 21.0515 277.793 20.9516 278.031 20.7471C278.274 20.5426 278.393 20.281 278.393 19.9528C278.393 19.6864 278.312 19.4677 278.145 19.2917C277.979 19.1157 277.779 18.9825 277.532 18.8826C277.285 18.7827 276.947 18.6733 276.519 18.5544C275.934 18.3832 275.458 18.212 275.092 18.0455C274.726 17.879 274.412 17.6222 274.145 17.2845C273.879 16.9468 273.751 16.4902 273.751 15.9194C273.751 15.3867 273.884 14.9206 274.15 14.5211C274.416 14.1263 274.792 13.8219 275.277 13.6079C275.763 13.3986 276.314 13.2892 276.933 13.2892C277.865 13.2892 278.621 13.5175 279.201 13.9693C279.782 14.4212 280.105 15.0538 280.167 15.8624H278.174C278.155 15.5532 278.027 15.2964 277.779 15.0918C277.532 14.8873 277.208 14.7874 276.804 14.7874C276.452 14.7874 276.167 14.8778 275.958 15.0585C275.748 15.2393 275.639 15.5009 275.639 15.8481C275.639 16.0907 275.72 16.2904 275.877 16.4474C276.038 16.6091 276.233 16.7375 276.471 16.8374C276.709 16.9373 277.042 17.0514 277.475 17.1799C278.06 17.3511 278.54 17.5271 278.911 17.6983C279.282 17.8695 279.601 18.1311 279.867 18.4736C280.134 18.816 280.267 19.2726 280.267 19.8291C280.267 20.3143 280.143 20.7614 279.891 21.1752C279.639 21.589 279.273 21.9172 278.792 22.1645C278.312 22.4118 277.736 22.5355 277.071 22.5355C276.443 22.5355 275.877 22.4308 275.373 22.2168Z" fill="#18407B"/>
    <path d="M287.977 13.4176V14.8778H285.57V22.4451H283.758V14.8826H281.351V13.4224H287.977V13.4176Z" fill="#18407B"/>
    <path d="M79.2404 29.708V43.7487C79.2404 45.6988 78.6744 47.2113 77.5519 48.291C76.4246 49.3707 74.9169 49.9081 73.0239 49.9081C71.1118 49.9081 69.5708 49.3517 68.3959 48.2434C67.2211 47.1352 66.6313 45.5894 66.6313 43.6012H70.6457C70.6647 44.4621 70.8692 45.128 71.264 45.6084C71.654 46.0841 72.2248 46.3266 72.9668 46.3266C73.6945 46.3266 74.2462 46.0983 74.6267 45.637C75.0072 45.1803 75.2023 44.5478 75.2023 43.7439V29.708H79.2404Z" fill="#18407B"/>
    <path d="M87.8637 29.708V42.0887C87.8637 43.4443 88.2157 44.4812 88.9244 45.1994C89.6331 45.9176 90.6224 46.2743 91.9066 46.2743C93.2051 46.2743 94.2087 45.9176 94.9173 45.1994C95.626 44.4812 95.978 43.449 95.978 42.0887V29.708H100.021V42.0602C100.021 43.763 99.6547 45.1994 98.9174 46.3742C98.1802 47.549 97.2004 48.4337 95.9637 49.0235C94.7318 49.618 93.362 49.9129 91.8495 49.9129C90.3608 49.9129 89.0052 49.618 87.7924 49.0235C86.5795 48.4337 85.6187 47.549 84.91 46.3742C84.2013 45.1994 83.8494 43.763 83.8494 42.0602V29.708H87.8637Z" fill="#18407B"/>
    <path d="M107.022 49.1947C105.905 48.7191 105.02 48.0294 104.373 47.1305C103.721 46.2315 103.388 45.1709 103.369 43.9485H107.669C107.726 44.7713 108.016 45.4182 108.544 45.8986C109.067 46.3742 109.79 46.6168 110.708 46.6168C111.645 46.6168 112.378 46.3932 112.915 45.9414C113.448 45.4943 113.719 44.9045 113.719 44.1768C113.719 43.5823 113.538 43.0971 113.177 42.7166C112.815 42.3361 112.359 42.0317 111.817 41.8129C111.274 41.5941 110.523 41.3515 109.567 41.0804C108.268 40.6999 107.212 40.3194 106.399 39.9484C105.586 39.5774 104.891 39.0114 104.306 38.2599C103.721 37.5037 103.431 36.4953 103.431 35.2349C103.431 34.0506 103.726 33.0184 104.321 32.1385C104.91 31.2586 105.743 30.588 106.813 30.1171C107.883 29.651 109.106 29.4131 110.48 29.4131C112.544 29.4131 114.219 29.9126 115.508 30.9161C116.797 31.9197 117.51 33.3181 117.643 35.116H113.229C113.191 34.4263 112.901 33.8603 112.354 33.4132C111.807 32.9661 111.089 32.7378 110.19 32.7378C109.405 32.7378 108.782 32.9376 108.311 33.3371C107.845 33.7366 107.607 34.3217 107.607 35.0874C107.607 35.6202 107.783 36.0673 108.135 36.4192C108.487 36.7712 108.93 37.0613 109.453 37.2801C109.976 37.4989 110.718 37.751 111.674 38.0411C112.972 38.4216 114.033 38.8069 114.856 39.1874C115.679 39.5679 116.383 40.1434 116.977 40.9092C117.567 41.675 117.867 42.6785 117.867 43.9199C117.867 44.9901 117.591 45.9842 117.034 46.9022C116.478 47.8201 115.669 48.5479 114.599 49.0948C113.529 49.6371 112.259 49.9129 110.789 49.9129C109.396 49.9082 108.14 49.6704 107.022 49.1947Z" fill="#18407B"/>
    <path d="M134.946 29.708V32.9471H129.615V49.7131H125.605V32.9471H120.273V29.708H134.946Z" fill="#18407B"/>
    <path d="M141.886 29.708V49.7084H137.872V29.708H141.886Z" fill="#18407B"/>
    <path d="M149.939 46.3266H158.938V49.7084H145.296V46.612L154.238 33.085H145.296V29.7032H158.938V32.7996L149.939 46.3266Z" fill="#18407B"/>
    <path d="M48.2246 33.9507H39.8962C42.3933 38.6785 45.5372 38.7879 48.2246 33.9507Z" fill="#193862"/>
    <path d="M44.0151 38.2409C44.0009 38.2409 43.9914 38.2409 43.9771 38.2409C42.7785 38.2266 40.9901 37.5275 39.2731 34.2789C39.1589 34.0601 39.1637 33.7985 39.2921 33.5845C39.4205 33.3704 39.6488 33.242 39.8962 33.242H48.2245C48.4766 33.242 48.7049 33.3752 48.8333 33.5892C48.9617 33.8033 48.9617 34.0696 48.8428 34.2884C47.3874 36.9139 45.7607 38.2409 44.0151 38.2409ZM41.128 34.6546C42.0555 36.072 43.0353 36.8235 43.9961 36.833C44.9759 36.8235 45.9843 36.0958 46.9688 34.6546H41.128Z" fill="#193862"/>
    <path d="M40.5192 34.2836L39.2778 33.613L44.1245 24.7186L48.8476 33.6177L47.6014 34.2788L44.1103 27.6961L40.5192 34.2836Z" fill="#193862"/>
    <path d="M48.1816 33.9507H39.8533C42.3503 38.6785 45.4943 38.7879 48.1816 33.9507Z" fill="#FDFFFF"/>
    <path d="M43.9722 38.2409C43.9579 38.2409 43.9484 38.2409 43.9341 38.2409C42.7355 38.2266 40.9471 37.5275 39.2301 34.2789C39.116 34.0601 39.1207 33.7985 39.2491 33.5845C39.3776 33.3704 39.6059 33.242 39.8532 33.242H48.1815C48.4336 33.242 48.6619 33.3752 48.7903 33.5892C48.9188 33.8033 48.9187 34.0696 48.7998 34.2884C47.3396 36.9139 45.7177 38.2409 43.9722 38.2409ZM41.0851 34.6546C42.0126 36.072 42.9924 36.8235 43.9531 36.833C43.9579 36.833 43.9674 36.833 43.9722 36.833C44.9377 36.833 45.946 36.0863 46.9211 34.6546H41.0851Z" fill="#FDFFFF"/>
    <path d="M40.4763 34.2836L39.2349 33.613L44.0816 24.7186L48.8046 33.6177L47.5584 34.2788L44.0625 27.6961L40.4763 34.2836Z" fill="#FDFFFF"/>
    <path d="M29.6366 63.6968C29.4844 63.6968 29.3322 63.6682 29.1847 63.6112C28.9231 63.5065 22.6828 60.9999 16.1096 53.1187C5.24136 40.0911 2.08316 22.6639 1.35068 10.3355C1.31739 9.75525 1.69314 9.2273 2.25438 9.07034L29.3655 1.54582C29.5843 1.48399 29.8126 1.48399 30.0266 1.54582L56.9997 9.07034C57.5134 9.21303 57.8797 9.66964 57.9034 10.2023C57.9225 10.5876 58.3077 19.8196 55.1257 31.0541C50.8926 46.0032 42.2741 57.2377 30.2073 63.5541C30.0313 63.6492 29.8316 63.6968 29.6366 63.6968ZM3.8858 11.1869C4.69914 23.0159 7.8288 39.2445 17.9027 51.4064C23.0443 57.6182 28.0337 60.3341 29.5938 61.0856C40.8996 54.9832 48.6857 44.681 52.7285 30.4548C55.2637 21.5462 55.4634 13.7648 55.4539 11.2059L29.6936 4.02387L3.8858 11.1869Z" fill="#961638"/>
    <path d="M4.77539 11.5151L29.5606 4.22363L54.9642 11.7006C54.9642 11.7006 55.4541 45.7274 29.632 59.2353C29.6367 59.2353 7.04416 49.7417 4.77539 11.5151Z" fill="#18407B"/>
    <path d="M28.4287 61.3281L29.1469 14.678H30.122L30.6832 61.3281H28.4287Z" fill="#FDFFFF"/>
    <path d="M31.0398 61.6801H28.0671L28.7949 14.326H30.4691L31.0398 61.6801ZM28.7853 60.9761H30.3264L29.7747 15.0347H29.494L28.7853 60.9761Z" fill="#FDFFFF"/>
    <path d="M26.016 16.3897L22.6489 58.083L24.4079 58.2251L27.775 16.5317L26.016 16.3897Z" fill="#FDFFFF"/>
    <path d="M33.2248 16.3932L31.4658 16.5349L34.8245 58.2282L36.5835 58.0865L33.2248 16.3932Z" fill="#FDFFFF"/>
    <path d="M29.7841 65L28.733 64.5862C28.4571 64.4768 21.9362 61.8561 15.1632 53.737C4.07617 40.4526 0.860896 22.7495 0.118908 10.2404L0 8.24272L29.6985 0L59.0593 8.1904L59.1402 9.97402C59.1592 10.3688 59.554 19.7958 56.3149 31.2205C51.9867 46.5026 43.1542 58.0034 30.783 64.4768L29.7841 65ZM5.19391 11.9336C6.09761 23.4249 9.2463 38.7498 18.7447 50.3125C23.2632 55.8155 27.6628 58.5171 29.5701 59.5159C40.2481 53.5515 47.6299 43.6346 51.5206 30.0172C53.7751 22.1264 54.1651 15.1251 54.2126 11.9717L29.6938 5.13208L5.19391 11.9336Z" fill="white"/>
    <path d="M29.708 63.6444L29.1848 63.4399C28.9232 63.3353 22.6829 60.8287 16.1097 52.9474C5.24145 39.9151 2.08325 22.4879 1.35078 10.1642L1.2937 9.16542L29.6985 1.28418L57.8655 9.14164L57.9083 10.0358C57.9273 10.4211 58.3126 19.6531 55.1306 30.8876C50.8975 45.8367 42.279 57.0712 30.2122 63.3876L29.708 63.6444ZM3.8859 11.0156C4.69923 22.8446 7.8289 39.0732 17.9028 51.2352C23.0444 57.4469 28.0338 60.1628 29.5939 60.9143C40.8997 54.8119 48.6858 44.5097 52.7286 30.2835C55.2638 21.3749 55.4635 13.5936 55.454 11.0347L29.6937 3.84784L3.8859 11.0156Z" fill="#9C1738"/>
    <path d="M32.343 16.2952L30.7354 5.81226H28.5094L26.8257 16.2952" fill="#FDFFFF"/>
    <path d="M29.5604 7.14875C27.948 7.14875 26.6353 5.836 26.6353 4.2236C26.6353 2.61121 27.948 1.29846 29.5604 1.29846C31.1728 1.29846 32.4855 2.61121 32.4855 4.2236C32.4855 5.836 31.1728 7.14875 29.5604 7.14875Z" fill="#FDFFFF"/>
    <path d="M29.5605 1.82641C30.8828 1.82641 31.953 2.89659 31.953 4.21885C31.953 5.54111 30.8828 6.61128 29.5605 6.61128C28.2383 6.61128 27.1681 5.54111 27.1681 4.21885C27.1681 2.89659 28.2383 1.82641 29.5605 1.82641ZM29.5605 0.770508C27.658 0.770508 26.1074 2.32107 26.1074 4.2236C26.1074 6.12613 27.658 7.6767 29.5605 7.6767C31.463 7.6767 33.0136 6.12613 33.0136 4.2236C33.0136 2.32107 31.4678 0.770508 29.5605 0.770508Z" fill="white"/>
    <path d="M29.5605 5.72189C30.388 5.72189 31.0587 5.0511 31.0587 4.22365C31.0587 3.39619 30.388 2.7254 29.5605 2.7254C28.733 2.7254 28.0623 3.39619 28.0623 4.22365C28.0623 5.0511 28.733 5.72189 29.5605 5.72189Z" fill="#18407B"/>
    <path d="M15.929 22.821C13.8743 22.821 12.2048 21.1515 12.2048 19.0968C12.2048 17.042 13.8743 15.3726 15.929 15.3726C16.4189 15.3726 16.8137 15.7673 16.8137 16.2572C16.8137 16.7471 16.4189 17.1419 15.929 17.1419C14.8494 17.1419 13.9694 18.0218 13.9694 19.1015C13.9694 20.1812 14.8494 21.0611 15.929 21.0611C16.7186 21.0611 17.4273 20.5903 17.7317 19.8673C17.9219 19.4202 18.4404 19.2062 18.8875 19.3964C19.3346 19.5867 19.5486 20.1051 19.3584 20.5522C18.7733 21.9268 17.4273 22.821 15.929 22.821Z" fill="#FDFFFF"/>
    <path d="M43.083 22.8114C41.5848 22.8114 40.2388 21.9172 39.6537 20.5379C39.4635 20.0908 39.6728 19.5723 40.1246 19.3821C40.5717 19.1918 41.0901 19.4011 41.2804 19.8529C41.5896 20.5807 42.2935 21.0468 43.083 21.0468C44.1627 21.0468 45.0426 20.1669 45.0426 19.0872C45.0426 18.0075 44.1627 17.1276 43.083 17.1276C42.5931 17.1276 42.1984 16.7328 42.1984 16.2429C42.1984 15.753 42.5931 15.3582 43.083 15.3582C45.1378 15.3582 46.8072 17.0277 46.8072 19.0824C46.8072 21.1419 45.1378 22.8114 43.083 22.8114Z" fill="#FDFFFF"/>
    <path d="M16.2858 17.1371C15.8007 17.1371 15.4011 16.7423 15.4011 16.2524C15.4011 15.7625 15.7959 15.3677 16.2858 15.3677L43.083 15.3582C43.5681 15.3582 43.9676 15.753 43.9676 16.2429C43.9676 16.7328 43.5729 17.1276 43.083 17.1276L16.2858 17.1371Z" fill="#FDFFFF"/>
    <path d="M48.0485 33.9031H39.7107C42.2078 38.6356 45.3565 38.7498 48.0485 33.9031Z" fill="#193862"/>
    <path d="M43.8343 38.1981C43.8201 38.1981 43.8106 38.1981 43.7963 38.1981C42.5977 38.1838 40.8046 37.4846 39.0875 34.2313C38.9734 34.0125 38.9781 33.7509 39.1066 33.5369C39.235 33.3228 39.4633 33.1944 39.7106 33.1944H48.0485C48.3005 33.1944 48.5288 33.3276 48.6573 33.5416C48.7857 33.7556 48.7857 34.022 48.6668 34.2408C47.2066 36.871 45.5799 38.1981 43.8343 38.1981ZM40.9425 34.607C41.8747 36.0292 42.8545 36.7759 43.8106 36.7854C43.8153 36.7854 43.8248 36.7854 43.8296 36.7854C44.7951 36.7854 45.8035 36.0387 46.7833 34.607H40.9425Z" fill="#193862"/>
    <path d="M40.3288 34.2408L39.0874 33.5606L43.9389 24.6568L48.6714 33.5702L47.4252 34.2313L43.9246 27.6438L40.3288 34.2408Z" fill="#193862"/>
    <path d="M19.3964 33.9031H11.0586C13.5557 38.6356 16.7044 38.7498 19.3964 33.9031Z" fill="#FDFFFF"/>
    <path d="M15.1822 38.1981C15.168 38.1981 15.1585 38.1981 15.1442 38.1981C13.9456 38.1838 12.1525 37.4846 10.4354 34.2313C10.3213 34.0125 10.326 33.7509 10.4545 33.5369C10.5829 33.3228 10.8112 33.1944 11.0585 33.1944H19.3964C19.6484 33.1944 19.8767 33.3276 20.0052 33.5416C20.1336 33.7556 20.1336 34.022 20.0147 34.2408C18.5545 36.871 16.9278 38.1981 15.1822 38.1981ZM12.2904 34.607C13.2226 36.0292 14.2024 36.7759 15.1585 36.7854C15.1632 36.7854 15.1727 36.7854 15.1775 36.7854C16.143 36.7854 17.1514 36.0387 18.1312 34.607H12.2904Z" fill="#FDFFFF"/>
    <path d="M11.6767 34.2408L10.4353 33.5606L15.2915 24.6568L20.0193 33.5702L18.7731 34.2313L15.2725 27.6438L11.6767 34.2408Z" fill="#FDFFFF"/>
    <path d="M48.0058 33.9031H39.668C42.165 38.6356 45.309 38.7498 48.0058 33.9031Z" fill="#FDFFFF"/>
    <path d="M43.7916 38.1981C43.7774 38.1981 43.7678 38.1981 43.7536 38.1981C42.555 38.1838 40.7618 37.4846 39.0448 34.2313C38.9307 34.0125 38.9354 33.7509 39.0638 33.5369C39.1923 33.3228 39.4206 33.1944 39.6679 33.1944H48.0057C48.2578 33.1944 48.4861 33.3276 48.6145 33.5416C48.743 33.7556 48.743 34.022 48.6241 34.2408C47.1639 36.871 45.5372 38.1981 43.7916 38.1981ZM40.8998 34.607C41.832 36.0292 42.8118 36.7759 43.7678 36.7854C43.7726 36.7854 43.7821 36.7854 43.7869 36.7854C44.7524 36.7854 45.7607 36.0387 46.7405 34.607H40.8998Z" fill="#FDFFFF"/>
    <path d="M40.2861 34.2408L39.0447 33.5606L43.8961 24.6568L48.6287 33.5702L47.3778 34.2313L43.8819 27.6438L40.2861 34.2408Z" fill="#FDFFFF"/>
    <path d="M32.343 17.5889L30.7354 6.16895H28.5094L26.8257 17.5889" fill="#FDFFFF"/>
  </g>
  <defs>
    <clipPath id="clip0_2882_8531">
      <rect width="287.977" height="65" fill="white"/>
    </clipPath>
  </defs>
</svg>
