<svg width="253" height="65" viewBox="0 0 253 65" fill="none" xmlns="http://www.w3.org/2000/svg">
  <g clip-path="url(#clip0_2882_8967)">
    <path d="M80.3344 13.2892V14.7256H76.6387V16.9991H79.4687V18.407H76.6387V22.155H74.8599V13.2892H80.3344Z" fill="#18407B"/>
    <path d="M83.4974 14.7256V16.9468H86.4796V18.3547H83.4974V20.7043H86.8649V22.1502H81.7233V13.2797H86.8649V14.7256H83.4974Z" fill="#18407B"/>
    <path d="M94.1611 13.8362C94.8698 14.2024 95.412 14.7208 95.7973 15.3915C96.1826 16.0621 96.3728 16.8469 96.3728 17.7364C96.3728 18.6258 96.1826 19.4011 95.7973 20.067C95.412 20.7328 94.865 21.2465 94.1611 21.608C93.4524 21.9742 92.6343 22.155 91.7021 22.155H88.6057V13.2892H91.7021C92.6343 13.2892 93.4524 13.4747 94.1611 13.8362ZM93.7949 19.8815C94.3038 19.3725 94.5559 18.6591 94.5559 17.7364C94.5559 16.8136 94.3038 16.0907 93.7949 15.5722C93.2859 15.0538 92.5677 14.7922 91.6355 14.7922H90.3798V20.6425H91.6355C92.5677 20.6425 93.2907 20.3904 93.7949 19.8815Z" fill="#18407B"/>
    <path d="M99.6118 14.7256V16.9468H102.594V18.3547H99.6118V20.7043H102.979V22.1502H97.8376V13.2797H102.979V14.7256H99.6118Z" fill="#18407B"/>
    <path d="M109.291 22.155L107.336 18.7019H106.499V22.155H104.72V13.2892H108.05C108.734 13.2892 109.319 13.4081 109.8 13.6507C110.28 13.8932 110.646 14.2167 110.884 14.6305C111.122 15.0443 111.246 15.5009 111.246 16.0098C111.246 16.5948 111.075 17.1228 110.737 17.5889C110.399 18.0598 109.895 18.3832 109.224 18.5592L111.346 22.155H109.291ZM106.494 17.3654H107.978C108.459 17.3654 108.82 17.2512 109.058 17.0181C109.296 16.7851 109.415 16.4617 109.415 16.0479C109.415 15.6436 109.296 15.3249 109.058 15.1013C108.82 14.8778 108.463 14.7636 107.978 14.7636H106.494V17.3654Z" fill="#18407B"/>
    <path d="M118.418 20.4665H114.889L114.304 22.155H112.44L115.626 13.2797H117.695L120.882 22.155H119.003L118.418 20.4665ZM117.938 19.0443L116.654 15.3344L115.369 19.0443H117.938Z" fill="#18407B"/>
    <path d="M123.983 20.7471H126.904V22.155H122.204V13.2892H123.983V20.7471Z" fill="#18407B"/>
    <path d="M129.938 14.7256V16.9468H132.92V18.3547H129.938V20.7043H133.306V22.1502H128.164V13.2797H133.306V14.7256H129.938Z" fill="#18407B"/>
    <path d="M140.022 21.6603C139.327 21.2703 138.775 20.7328 138.371 20.0432C137.967 19.3535 137.762 18.5735 137.762 17.6983C137.762 16.8327 137.967 16.0574 138.371 15.3677C138.775 14.678 139.327 14.1406 140.022 13.7506C140.716 13.3605 141.477 13.1655 142.309 13.1655C143.146 13.1655 143.912 13.3605 144.602 13.7506C145.292 14.1406 145.839 14.678 146.238 15.3677C146.638 16.0574 146.842 16.8327 146.842 17.6983C146.842 18.5687 146.642 19.3535 146.238 20.0432C145.834 20.7328 145.287 21.2751 144.592 21.6603C143.898 22.0504 143.137 22.2454 142.305 22.2454C141.472 22.2454 140.716 22.0504 140.022 21.6603ZM143.717 20.2953C144.122 20.0527 144.44 19.7102 144.669 19.2584C144.897 18.8113 145.011 18.2881 145.011 17.6983C145.011 17.1038 144.897 16.5853 144.669 16.143C144.44 15.7006 144.122 15.3582 143.717 15.1204C143.313 14.8826 142.842 14.7637 142.309 14.7637C141.777 14.7637 141.306 14.8826 140.892 15.1204C140.483 15.3582 140.16 15.6959 139.931 16.143C139.703 16.5853 139.589 17.1038 139.589 17.6983C139.589 18.2929 139.703 18.8113 139.931 19.2584C140.16 19.7055 140.478 20.0527 140.892 20.2953C141.301 20.5378 141.777 20.6567 142.309 20.6567C142.837 20.6567 143.308 20.5378 143.717 20.2953Z" fill="#18407B"/>
    <path d="M156.25 13.2892L153.002 22.155H150.842L147.594 13.2892H149.496L151.936 20.3381L154.362 13.2892H156.25Z" fill="#18407B"/>
    <path d="M159.223 14.7256V16.9468H162.205V18.3547H159.223V20.7043H162.59V22.1502H157.449V13.2797H162.59V14.7256H159.223Z" fill="#18407B"/>
    <path d="M168.897 22.155L166.942 18.7019H166.105V22.155H164.326V13.2892H167.656C168.341 13.2892 168.926 13.4081 169.406 13.6507C169.887 13.8932 170.253 14.2167 170.491 14.6305C170.733 15.0395 170.852 15.5009 170.852 16.0098C170.852 16.5948 170.681 17.1228 170.343 17.5889C170.005 18.055 169.501 18.3832 168.831 18.5592L170.952 22.155H168.897ZM166.105 17.3654H167.589C168.07 17.3654 168.431 17.2512 168.669 17.0181C168.907 16.7851 169.026 16.4617 169.026 16.0479C169.026 15.6436 168.907 15.3249 168.669 15.1013C168.431 14.8778 168.074 14.7636 167.589 14.7636H166.105V17.3654Z" fill="#18407B"/>
    <path d="M179.946 13.2892V22.155H178.167V18.3832H174.372V22.155H172.593V13.2892H174.372V16.9325H178.167V13.2892H179.946Z" fill="#18407B"/>
    <path d="M183.604 14.7256V16.9468H186.586V18.3547H183.604V20.7043H186.971V22.1502H181.83V13.2797H186.971V14.7256H183.604Z" fill="#18407B"/>
    <path d="M190.486 13.2892V22.155H188.707V13.2892H190.486Z" fill="#18407B"/>
    <path d="M197.92 13.8362C198.629 14.2024 199.171 14.7208 199.557 15.3915C199.942 16.0621 200.132 16.8469 200.132 17.7364C200.132 18.6258 199.937 19.4011 199.557 20.067C199.171 20.7328 198.624 21.2465 197.92 21.608C197.212 21.9742 196.394 22.155 195.461 22.155H192.365V13.2892H195.461C196.394 13.2892 197.212 13.4747 197.92 13.8362ZM197.559 19.8815C198.068 19.3725 198.32 18.6591 198.32 17.7364C198.32 16.8136 198.068 16.0907 197.559 15.5722C197.05 15.0538 196.332 14.7922 195.4 14.7922H194.144V20.6425H195.4C196.332 20.6425 197.05 20.3904 197.559 19.8815Z" fill="#18407B"/>
    <path d="M202.986 21.9267C202.491 21.7174 202.101 21.4083 201.811 21.0135C201.521 20.6139 201.373 20.1478 201.369 19.6056H203.271C203.295 19.9718 203.428 20.2572 203.656 20.4713C203.885 20.6853 204.208 20.7899 204.617 20.7899C205.031 20.7899 205.359 20.6901 205.597 20.4903C205.835 20.2905 205.954 20.0289 205.954 19.7102C205.954 19.4486 205.873 19.2299 205.711 19.0634C205.549 18.8922 205.35 18.759 205.107 18.6639C204.865 18.5687 204.532 18.4593 204.108 18.3404C203.533 18.1692 203.067 18.0027 202.705 17.841C202.344 17.6745 202.035 17.4272 201.778 17.0895C201.521 16.7518 201.392 16.3095 201.392 15.7482C201.392 15.225 201.526 14.7684 201.787 14.3784C202.049 13.9884 202.42 13.6887 202.891 13.4842C203.366 13.2749 203.909 13.175 204.517 13.175C205.431 13.175 206.173 13.3986 206.748 13.8409C207.319 14.2833 207.633 14.9064 207.695 15.7007H205.74C205.721 15.3963 205.592 15.1442 205.354 14.9444C205.112 14.7446 204.793 14.6448 204.394 14.6448C204.046 14.6448 203.771 14.7351 203.561 14.9111C203.352 15.0871 203.252 15.3487 203.252 15.6864C203.252 15.9242 203.328 16.1192 203.485 16.2762C203.642 16.4331 203.837 16.5616 204.07 16.6567C204.303 16.7518 204.631 16.866 205.055 16.9944C205.63 17.1656 206.101 17.3321 206.463 17.5033C206.829 17.6745 207.138 17.9266 207.404 18.2643C207.666 18.602 207.799 19.0491 207.799 19.5961C207.799 20.0717 207.676 20.5093 207.433 20.9184C207.186 21.3226 206.829 21.6508 206.353 21.8886C205.878 22.1312 205.316 22.2501 204.665 22.2501C204.037 22.2454 203.48 22.136 202.986 21.9267Z" fill="#18407B"/>
    <path d="M215.01 13.8362C215.719 14.2024 216.261 14.7208 216.646 15.3915C217.031 16.0621 217.222 16.8469 217.222 17.7364C217.222 18.6258 217.027 19.4011 216.646 20.067C216.261 20.7328 215.714 21.2465 215.01 21.608C214.301 21.9742 213.483 22.155 212.551 22.155H209.454V13.2892H212.551C213.488 13.2892 214.306 13.4747 215.01 13.8362ZM214.648 19.8815C215.157 19.3725 215.409 18.6591 215.409 17.7364C215.409 16.8136 215.157 16.0907 214.648 15.5722C214.139 15.0538 213.421 14.7922 212.489 14.7922H211.233V20.6425H212.489C213.421 20.6425 214.144 20.3904 214.648 19.8815Z" fill="#18407B"/>
    <path d="M220.465 13.2892V22.155H218.687V13.2892H220.465Z" fill="#18407B"/>
    <path d="M224.123 14.7256V16.9468H227.105V18.3547H224.123V20.7043H227.49V22.1502H222.349V13.2797H227.49V14.7256H224.123Z" fill="#18407B"/>
    <path d="M236.808 22.155H235.029L231.005 16.0716V22.155H229.227V13.2797H231.005L235.029 19.3725V13.2797H236.808V22.155Z" fill="#18407B"/>
    <path d="M240.081 21.9267C239.586 21.7174 239.196 21.4083 238.906 21.0135C238.616 20.6139 238.468 20.1478 238.463 19.6056H240.366C240.39 19.9718 240.523 20.2572 240.751 20.4713C240.979 20.6853 241.303 20.7899 241.712 20.7899C242.126 20.7899 242.454 20.6901 242.692 20.4903C242.93 20.2905 243.048 20.0289 243.048 19.7102C243.048 19.4486 242.968 19.2299 242.806 19.0634C242.644 18.8922 242.444 18.759 242.202 18.6639C241.959 18.5687 241.626 18.4593 241.203 18.3404C240.628 18.1692 240.161 18.0027 239.8 17.841C239.438 17.6745 239.129 17.4272 238.872 17.0895C238.616 16.7518 238.487 16.3095 238.487 15.7482C238.487 15.225 238.62 14.7684 238.882 14.3784C239.144 13.9884 239.515 13.6887 239.985 13.4842C240.461 13.2749 241.003 13.175 241.612 13.175C242.525 13.175 243.267 13.3986 243.843 13.8409C244.414 14.2833 244.727 14.9064 244.789 15.7007H242.834C242.815 15.3963 242.687 15.1442 242.449 14.9444C242.207 14.7446 241.888 14.6448 241.488 14.6448C241.141 14.6448 240.865 14.7351 240.656 14.9111C240.447 15.0871 240.347 15.3487 240.347 15.6864C240.347 15.9242 240.423 16.1192 240.58 16.2762C240.737 16.4331 240.932 16.5616 241.165 16.6567C241.398 16.7518 241.726 16.866 242.15 16.9944C242.725 17.1656 243.196 17.3321 243.557 17.5033C243.924 17.6745 244.233 17.9266 244.499 18.2643C244.761 18.602 244.894 19.0491 244.894 19.5961C244.894 20.0717 244.77 20.5093 244.528 20.9184C244.28 21.3226 243.924 21.6508 243.448 21.8886C242.972 22.1312 242.411 22.2501 241.76 22.2501C241.132 22.2454 240.575 22.136 240.081 21.9267Z" fill="#18407B"/>
    <path d="M252.58 13.2892V14.7256H250.216V22.155H248.437V14.7256H246.073V13.2892H252.58Z" fill="#18407B"/>
    <path d="M78.7077 29.513V43.3397C78.7077 45.2565 78.1512 46.7499 77.043 47.8106C75.9348 48.876 74.446 49.404 72.5863 49.404C70.7028 49.404 69.1855 48.857 68.0298 47.7678C66.874 46.6786 66.2937 45.1518 66.2937 43.197H70.2462C70.2652 44.0436 70.465 44.7 70.855 45.1708C71.2403 45.6417 71.8015 45.8748 72.534 45.8748C73.2475 45.8748 73.7944 45.6512 74.1702 45.1994C74.5459 44.7475 74.7362 44.1292 74.7362 43.3349V29.513H78.7077Z" fill="#18407B"/>
    <path d="M87.4832 29.513V41.7035C87.4832 43.04 87.8304 44.0579 88.5296 44.7666C89.224 45.4705 90.2038 45.8272 91.4642 45.8272C92.7437 45.8272 93.733 45.4752 94.4274 44.7666C95.1218 44.0626 95.4738 43.04 95.4738 41.7035V29.513H99.4548V41.6749C99.4548 43.3492 99.0934 44.7666 98.3704 45.9223C97.6474 47.0781 96.6771 47.9485 95.4643 48.5336C94.2514 49.1186 92.9006 49.4087 91.4166 49.4087C89.9469 49.4087 88.6199 49.1186 87.4213 48.5336C86.2275 47.9485 85.281 47.0781 84.5866 45.9223C83.8921 44.7666 83.5402 43.3492 83.5402 41.6749V29.513H87.4832Z" fill="#18407B"/>
    <path d="M106.632 48.7001C105.533 48.2292 104.663 47.5538 104.021 46.6691C103.379 45.7844 103.051 44.7428 103.032 43.5347H107.265C107.322 44.3433 107.607 44.9854 108.126 45.4515C108.644 45.9224 109.353 46.1554 110.256 46.1554C111.179 46.1554 111.902 45.9366 112.43 45.4943C112.958 45.052 113.22 44.4717 113.22 43.7582C113.22 43.1732 113.039 42.6976 112.682 42.3171C112.325 41.9413 111.878 41.6464 111.341 41.4276C110.803 41.2136 110.066 40.971 109.124 40.7094C107.845 40.3337 106.803 39.9627 106.004 39.5965C105.205 39.2302 104.52 38.6737 103.945 37.9317C103.369 37.1898 103.084 36.1957 103.084 34.9543C103.084 33.789 103.374 32.7711 103.959 31.9055C104.544 31.0398 105.362 30.3787 106.413 29.9173C107.465 29.456 108.673 29.2277 110.023 29.2277C112.054 29.2277 113.705 29.7223 114.975 30.7069C116.245 31.6962 116.944 33.0708 117.077 34.8401H112.73C112.692 34.1647 112.406 33.6035 111.869 33.1611C111.331 32.7188 110.623 32.5 109.738 32.5C108.968 32.5 108.349 32.6998 107.888 33.0946C107.426 33.4893 107.198 34.0648 107.198 34.8163C107.198 35.3443 107.374 35.7819 107.721 36.1291C108.069 36.4763 108.501 36.7617 109.02 36.9757C109.538 37.1945 110.266 37.4418 111.208 37.7225C112.487 38.0982 113.529 38.474 114.342 38.8497C115.151 39.2255 115.845 39.7915 116.43 40.543C117.015 41.2945 117.305 42.2838 117.305 43.5062C117.305 44.5621 117.034 45.5371 116.487 46.4408C115.94 47.3445 115.141 48.0627 114.09 48.6002C113.034 49.1377 111.783 49.404 110.337 49.404C108.968 49.404 107.731 49.1709 106.632 48.7001Z" fill="#18407B"/>
    <path d="M134.414 29.513V32.6997H129.163V49.209H125.21V32.6997H119.959V29.513H134.414Z" fill="#18407B"/>
    <path d="M141.525 29.513V49.209H137.572V29.513H141.525Z" fill="#18407B"/>
    <path d="M159.104 29.513V32.6997H153.853V49.209H149.901V32.6997H144.65V29.513H159.104Z" fill="#18407B"/>
    <path d="M166.215 29.513V49.209H162.262V29.513H166.215Z" fill="#18407B"/>
    <path d="M174.343 32.6998V37.6368H180.974V40.7713H174.343V45.9937H181.82V49.209H170.391V29.4845H181.82V32.6998H174.343Z" fill="#18407B"/>
    <path d="M29.6367 63.6968C29.4845 63.6968 29.3323 63.6682 29.1848 63.6112C28.9232 63.5065 22.6829 60.9999 16.1097 53.1187C5.24148 40.0911 2.08328 22.6639 1.3508 10.3355C1.31751 9.75525 1.69326 9.2273 2.25451 9.07034L29.3656 1.54582C29.5844 1.48399 29.8127 1.48399 30.0267 1.54582L56.9999 9.07034C57.5135 9.21303 57.8798 9.66964 57.9036 10.2023C57.9226 10.5876 58.3078 19.8196 55.1259 31.0541C50.8927 46.0032 42.2743 57.2377 30.2075 63.5541C30.0315 63.6492 29.8317 63.6968 29.6367 63.6968ZM3.88593 11.1869C4.69926 23.0159 7.82892 39.2445 17.9028 51.4064C23.0444 57.6182 28.0338 60.3341 29.5939 61.0856C40.8997 54.9832 48.6858 44.681 52.7287 30.4548C55.2638 21.5462 55.4636 13.7648 55.454 11.2059L29.6938 4.02387L3.88593 11.1869Z" fill="#961638"/>
    <path d="M4.15222 11.2725L29.8554 4.58032L54.926 11.5912C54.926 11.5912 55.454 45.7273 29.6366 59.2353C29.6366 59.2353 6.42575 49.4991 4.15222 11.2725Z" fill="#18407B"/>
    <path d="M28.4286 61.3281L29.1468 14.6828H30.1218L30.6831 61.3281H28.4286Z" fill="#FDFFFF"/>
    <path d="M31.0398 61.6801H28.0671L28.7949 14.326H30.4691L31.0398 61.6801ZM28.7853 60.9761H30.3264L29.7747 15.0347H29.494L28.7853 60.9761Z" fill="#FDFFFF"/>
    <path d="M26.0159 16.3898L22.6488 58.0831L24.4078 58.2251L27.7748 16.5318L26.0159 16.3898Z" fill="#FDFFFF"/>
    <path d="M33.2249 16.393L31.4659 16.5347L34.8247 58.228L36.5836 58.0863L33.2249 16.393Z" fill="#FDFFFF"/>
    <path d="M29.7841 65L28.733 64.5862C28.4571 64.4768 21.9362 61.8561 15.1632 53.737C4.07617 40.4526 0.860896 22.7495 0.118908 10.2404L0 8.24272L29.6985 0L59.0593 8.1904L59.1402 9.97878C59.1592 10.3736 59.554 19.8006 56.3149 31.2253C51.9867 46.5074 43.1542 58.0082 30.783 64.4816L29.7841 65ZM5.19391 11.9336C6.09761 23.4249 9.2463 38.7546 18.7447 50.3125C23.268 55.8155 27.6628 58.5171 29.5701 59.5159C40.2481 53.5515 47.6299 43.6346 51.5206 30.0172C53.7751 22.1264 54.1651 15.1251 54.2126 11.9717L29.6938 5.13208L5.19391 11.9336Z" fill="white"/>
    <path d="M29.708 63.6444L29.1848 63.4399C28.9232 63.3353 22.6829 60.8287 16.1097 52.9474C5.24145 39.9151 2.08325 22.4927 1.35078 10.1642L1.2937 9.16542L29.6985 1.28418L57.8655 9.14164L57.9083 10.0358C57.9273 10.4211 58.3126 19.6531 55.1306 30.8876C50.8975 45.8367 42.279 57.0712 30.2122 63.3876L29.708 63.6444ZM3.8859 11.0156C4.69923 22.8446 7.8289 39.0732 17.9028 51.2352C23.0444 57.4469 28.0338 60.1628 29.5939 60.9143C40.8997 54.8119 48.6858 44.5097 52.7286 30.2835C55.2638 21.3749 55.4635 13.5936 55.454 11.0347L29.6937 3.84784L3.8859 11.0156Z" fill="#9C1738"/>
    <path d="M32.343 16.2952L30.7354 5.81226H28.5094L26.8257 16.2952" fill="#FDFFFF"/>
    <path d="M29.5606 7.14875C27.9482 7.14875 26.6355 5.836 26.6355 4.2236C26.6355 2.61121 27.9482 1.29846 29.5606 1.29846C31.173 1.29846 32.4858 2.61121 32.4858 4.2236C32.4858 5.836 31.173 7.14875 29.5606 7.14875Z" fill="#FDFFFF"/>
    <path d="M29.5606 1.82641C30.8829 1.82641 31.9531 2.89659 31.9531 4.21885C31.9531 5.54111 30.8829 6.61128 29.5606 6.61128C28.2384 6.61128 27.1682 5.54111 27.1682 4.21885C27.1682 2.89659 28.2384 1.82641 29.5606 1.82641ZM29.5606 0.770508C27.6581 0.770508 26.1075 2.32107 26.1075 4.2236C26.1075 6.12613 27.6581 7.6767 29.5606 7.6767C31.4632 7.6767 33.0137 6.12613 33.0137 4.2236C33.0137 2.32107 31.4679 0.770508 29.5606 0.770508Z" fill="white"/>
    <path d="M29.5606 5.72189C30.3881 5.72189 31.0589 5.0511 31.0589 4.22365C31.0589 3.39619 30.3881 2.7254 29.5606 2.7254C28.7332 2.7254 28.0624 3.39619 28.0624 4.22365C28.0624 5.0511 28.7332 5.72189 29.5606 5.72189Z" fill="#18407B"/>
    <path d="M15.9289 22.8209C13.8742 22.8209 12.2047 21.1514 12.2047 19.0967C12.2047 17.042 13.8742 15.3725 15.9289 15.3725C16.4188 15.3725 16.8136 15.7673 16.8136 16.2572C16.8136 16.7471 16.4188 17.1419 15.9289 17.1419C14.8492 17.1419 13.9693 18.0218 13.9693 19.1015C13.9693 20.1811 14.8492 21.0611 15.9289 21.0611C16.7185 21.0611 17.4272 20.5902 17.7316 19.8672C17.9218 19.4201 18.4403 19.2061 18.8874 19.3964C19.3344 19.5866 19.5485 20.105 19.3582 20.5521C18.7732 21.9267 17.4272 22.8209 15.9289 22.8209Z" fill="#FDFFFF"/>
    <path d="M43.0828 22.8114C41.5846 22.8114 40.2385 21.9172 39.6535 20.5379C39.4632 20.0908 39.6725 19.5723 40.1244 19.3821C40.5762 19.1918 41.0899 19.4011 41.2801 19.8529C41.5893 20.5807 42.2932 21.0468 43.0828 21.0468C44.1625 21.0468 45.0424 20.1669 45.0424 19.0872C45.0424 18.0075 44.1625 17.1276 43.0828 17.1276C42.5929 17.1276 42.1981 16.7328 42.1981 16.2429C42.1981 15.753 42.5929 15.3582 43.0828 15.3582C45.1375 15.3582 46.807 17.0277 46.807 19.0824C46.807 21.1372 45.1375 22.8114 43.0828 22.8114Z" fill="#FDFFFF"/>
    <path d="M16.2857 17.1371C15.8005 17.1371 15.401 16.7423 15.401 16.2524C15.401 15.7625 15.7958 15.3677 16.2857 15.3677L43.0828 15.3582C43.568 15.3582 43.9675 15.753 43.9675 16.2429C43.9675 16.7328 43.5727 17.1276 43.0828 17.1276L16.2857 17.1371Z" fill="#FDFFFF"/>
    <path d="M48.0484 33.9031H39.7106C42.2076 38.6356 45.3563 38.7498 48.0484 33.9031Z" fill="#193862"/>
    <path d="M43.8343 38.1981C43.8201 38.1981 43.8106 38.1981 43.7963 38.1981C42.5977 38.1838 40.8046 37.4846 39.0828 34.2313C38.9686 34.0125 38.9734 33.7509 39.1018 33.5369C39.2302 33.3228 39.4585 33.1944 39.7059 33.1944H48.0437C48.2958 33.1944 48.5241 33.3276 48.6525 33.5416C48.7809 33.7556 48.7809 34.022 48.662 34.2408C47.2066 36.871 45.5799 38.1981 43.8343 38.1981ZM40.9425 34.607C41.8747 36.0292 42.8545 36.7759 43.8106 36.7854C44.7618 36.7902 45.7987 36.0482 46.7833 34.607H40.9425Z" fill="#193862"/>
    <path d="M40.3289 34.2408L39.0875 33.5654L43.939 24.6568L48.6715 33.5702L47.4254 34.2313L43.9247 27.6438L40.3289 34.2408Z" fill="#193862"/>
    <path d="M19.3963 33.9031H11.0585C13.5555 38.6356 16.7042 38.7498 19.3963 33.9031Z" fill="#FDFFFF"/>
    <path d="M15.1822 38.1981C15.168 38.1981 15.1585 38.1981 15.1442 38.1981C13.9456 38.1838 12.1525 37.4846 10.4354 34.2313C10.3213 34.0125 10.326 33.7509 10.4545 33.5369C10.5829 33.3228 10.8112 33.1944 11.0585 33.1944H19.3964C19.6484 33.1944 19.8767 33.3276 20.0052 33.5416C20.1336 33.7556 20.1336 34.022 20.0147 34.2408C18.5545 36.871 16.9278 38.1981 15.1822 38.1981ZM12.2904 34.607C13.2226 36.0292 14.2024 36.7759 15.1585 36.7854C16.1525 36.7854 17.1466 36.0482 18.1312 34.607H12.2904Z" fill="#FDFFFF"/>
    <path d="M11.6768 34.2408L10.4354 33.5654L15.2869 24.6568L20.0194 33.5702L18.7733 34.2313L15.2726 27.6438L11.6768 34.2408Z" fill="#FDFFFF"/>
    <path d="M48.0056 33.9031H39.6677C42.1648 38.6356 45.3087 38.7498 48.0056 33.9031Z" fill="#FDFFFF"/>
    <path d="M43.7915 38.1981C43.7772 38.1981 43.7677 38.1981 43.7534 38.1981C42.5548 38.1838 40.7617 37.4846 39.0399 34.2313C38.9258 34.0125 38.9305 33.7509 39.0589 33.5369C39.1874 33.3228 39.4157 33.1944 39.663 33.1944H48.0008C48.2529 33.1944 48.4812 33.3276 48.6097 33.5416C48.7381 33.7556 48.7381 34.022 48.6192 34.2408C47.1637 36.871 45.5371 38.1981 43.7915 38.1981ZM40.8996 34.607C41.8319 36.0292 42.8117 36.7759 43.7677 36.7854C43.7725 36.7854 43.782 36.7854 43.7867 36.7854C44.7523 36.7854 45.7606 36.0387 46.7404 34.607H40.8996Z" fill="#FDFFFF"/>
    <path d="M40.2861 34.2408L39.0447 33.5654L43.8961 24.6568L48.6287 33.5702L47.3778 34.2313L43.8819 27.6438L40.2861 34.2408Z" fill="#FDFFFF"/>
    <path d="M32.343 17.5889L30.7354 6.17371H28.5094L26.8257 17.5889" fill="#FDFFFF"/>
  </g>
  <defs>
    <clipPath id="clip0_2882_8967">
      <rect width="252.58" height="65" fill="white"/>
    </clipPath>
  </defs>
</svg>
